Benne_Source.ufo
<glyph name="quotedbl" format="1">
  <advance width="309"/>
  <unicode hex="0022"/>
  <outline>
    <contour>
      <point x="209" y="444"/>
      <point x="215" y="452"/>
      <point x="222" y="469" type="curve" smooth="yes"/>
      <point x="253" y="540"/>
      <point x="269" y="598"/>
      <point x="269" y="644" type="curve" smooth="yes"/>
      <point x="269" y="665"/>
      <point x="264" y="676"/>
      <point x="255" y="676" type="curve" smooth="yes"/>
      <point x="232" y="676"/>
      <point x="193" y="644"/>
      <point x="193" y="620" type="curve"/>
      <point x="194" y="614" type="line"/>
      <point x="197" y="524" type="line"/>
      <point x="197" y="466" type="line"/>
      <point x="196" y="451"/>
      <point x="198" y="444"/>
      <point x="203" y="444" type="curve" smooth="yes"/>
    </contour>
    <contour>
      <point x="78" y="444"/>
      <point x="84" y="452"/>
      <point x="91" y="469" type="curve" smooth="yes"/>
      <point x="122" y="540"/>
      <point x="138" y="598"/>
      <point x="138" y="644" type="curve" smooth="yes"/>
      <point x="138" y="665"/>
      <point x="133" y="676"/>
      <point x="124" y="676" type="curve" smooth="yes"/>
      <point x="101" y="676"/>
      <point x="62" y="644"/>
      <point x="62" y="620" type="curve" smooth="yes"/>
      <point x="62" y="614" type="line"/>
      <point x="66" y="524" type="line"/>
      <point x="66" y="466" type="line"/>
      <point x="65" y="451"/>
      <point x="67" y="444"/>
      <point x="72" y="444" type="curve" smooth="yes"/>
    </contour>
  </outline>
</glyph>
<glyph name="comma" format="1">
  <advance width="228"/>
  <unicode hex="002C"/>
  <outline>
    <contour>
      <point x="96" y="-147"/>
      <point x="180" y="-72"/>
      <point x="180" y="20" type="curve" smooth="yes"/>
      <point x="180" y="76"/>
      <point x="143" y="117"/>
      <point x="104" y="117" type="curve" smooth="yes"/>
      <point x="65" y="117"/>
      <point x="42" y="97"/>
      <point x="42" y="73" type="curve" smooth="yes"/>
      <point x="42" y="48"/>
      <point x="61" y="32"/>
      <point x="86" y="30" type="curve" smooth="yes"/>
      <point x="110" y="28"/>
      <point x="128" y="2"/>
      <point x="128" y="-15" type="curve" smooth="yes"/>
      <point x="128" y="-79"/>
      <point x="84" y="-113"/>
      <point x="32" y="-124" type="curve" smooth="yes"/>
      <point x="23" y="-126"/>
      <point x="18" y="-130"/>
      <point x="18" y="-136" type="curve" smooth="yes"/>
      <point x="18" y="-143"/>
      <point x="24" y="-147"/>
      <point x="36" y="-147" type="curve" smooth="yes"/>
    </contour>
  </outline>
</glyph>
<glyph name="seven" format="1">
  <advance width="460"/>
  <unicode hex="0037"/>
  <outline>
    <contour>
      <point x="99" y="-193"/>
      <point x="105" y="-184"/>
      <point x="115" y="-166" type="curve" smooth="yes"/>
      <point x="395" y="323" type="line"/>
      <point x="411" y="347"/>
      <point x="421" y="364"/>
      <point x="426" y="374" type="curve"/>
      <point x="431" y="382"/>
      <point x="433" y="390"/>
      <point x="433" y="397" type="curve" smooth="yes"/>
      <point x="433" y="404"/>
      <point x="431" y="407"/>
      <point x="426" y="407" type="curve"/>
      <point x="407" y="403"/>
      <point x="355" y="401"/>
      <point x="270" y="401" type="curve" smooth="yes"/>
      <point x="185" y="401"/>
      <point x="132" y="401"/>
      <point x="113" y="402" type="curve" smooth="yes"/>
      <point x="50" y="406" type="line"/>
      <point x="43" y="406"/>
      <point x="40" y="402"/>
      <point x="40" y="395" type="curve" smooth="yes"/>
      <point x="40" y="372"/>
      <point x="37" y="349"/>
      <point x="32" y="326" type="curve" smooth="yes"/>
      <point x="27" y="303"/>
      <point x="24" y="289"/>
      <point x="24" y="286" type="curve" smooth="yes"/>
      <point x="24" y="283"/>
      <point x="26" y="281"/>
      <point x="29" y="281" type="curve" smooth="yes"/>
      <point x="34" y="281"/>
      <point x="43" y="289"/>
      <point x="55" y="304" type="curve" smooth="yes"/>
      <point x="67" y="319"/>
      <point x="87" y="326"/>
      <point x="115" y="326" type="curve" smooth="yes"/>
      <point x="128" y="326" type="line" smooth="yes"/>
      <point x="187" y="326"/>
      <point x="256" y="325"/>
      <point x="334" y="323" type="curve"/>
      <point x="342" y="322"/>
      <point x="346" y="320"/>
      <point x="346" y="317" type="curve" smooth="yes"/>
      <point x="346" y="316"/>
      <point x="345" y="314"/>
      <point x="344" y="313" type="curve"/>
      <point x="89" y="-126" type="line" smooth="yes"/>
      <point x="75" y="-151"/>
      <point x="68" y="-165"/>
      <point x="68" y="-170" type="curve" smooth="yes"/>
      <point x="68" y="-180"/>
      <point x="81" y="-193"/>
      <point x="96" y="-193" type="curve" smooth="yes"/>
    </contour>
  </outline>
</glyph>
<glyph name="greater" format="1">
  <advance width="590"/>
  <unicode hex="003E"/>
  <outline>
    <contour>
      <point x="65" y="-5"/>
      <point x="66" y="-5"/>
      <point x="67" y="-5" type="curve"/>
      <point x="504" y="195" type="line" smooth="yes"/>
      <point x="521" y="203"/>
      <point x="537" y="229"/>
      <point x="537" y="241" type="curve" smooth="yes"/>
      <point x="537" y="246"/>
      <point x="523" y="255"/>
      <point x="496" y="268" type="curve" smooth="yes"/>
      <point x="67" y="468" type="line"/>
      <point x="65" y="468" type="line"/>
      <point x="64" y="469" type="line"/>
      <point x="59" y="469"/>
      <point x="53" y="463"/>
      <point x="53" y="453" type="curve" smooth="yes"/>
      <point x="53" y="443"/>
      <point x="61" y="416"/>
      <point x="77" y="408" type="curve" smooth="yes"/>
      <point x="457" y="234" type="line"/>
      <point x="460" y="232"/>
      <point x="460" y="230"/>
      <point x="458" y="229" type="curve" smooth="yes"/>
      <point x="85" y="55" type="line"/>
      <point x="66" y="47"/>
      <point x="54" y="19"/>
      <point x="54" y="5" type="curve" smooth="yes"/>
      <point x="54" y="-2"/>
      <point x="57" y="-6"/>
      <point x="64" y="-6" type="curve"/>
    </contour>
  </outline>
</glyph>
<glyph name="D" format="1">
  <advance width="754"/>
  <unicode hex="0044"/>
  <outline>
    <contour>
      <point x="562" y="-7"/>
      <point x="719" y="151"/>
      <point x="719" y="341" type="curve" smooth="yes"/>
      <point x="719" y="531"/>
      <point x="597" y="659"/>
      <point x="340" y="659" type="curve"/>
      <point x="169" y="651" type="line"/>
      <point x="162" y="651" type="line"/>
      <point x="58" y="653" type="line" smooth="yes"/>
      <point x="39" y="653"/>
      <point x="29" y="649"/>
      <point x="29" y="642" type="curve" smooth="yes"/>
      <point x="29" y="633"/>
      <point x="41" y="626"/>
      <point x="65" y="622" type="curve" smooth="yes"/>
      <point x="112" y="613"/>
      <point x="129" y="596"/>
      <point x="129" y="549" type="curve" smooth="yes"/>
      <point x="129" y="99" type="line" smooth="yes"/>
      <point x="129" y="51"/>
      <point x="112" y="33"/>
      <point x="65" y="25" type="curve"/>
      <point x="41" y="20"/>
      <point x="29" y="14"/>
      <point x="29" y="7" type="curve" smooth="yes"/>
      <point x="29" y="-1"/>
      <point x="39" y="-5"/>
      <point x="58" y="-5" type="curve"/>
      <point x="163" y="0" type="line"/>
      <point x="194" y="0"/>
      <point x="236" y="-1"/>
      <point x="289" y="-3" type="curve" smooth="yes"/>
      <point x="342" y="-6"/>
      <point x="369" y="-7"/>
      <point x="371" y="-7" type="curve" smooth="yes"/>
    </contour>
    <contour>
      <point x="278" y="28"/>
      <point x="209" y="42"/>
      <point x="209" y="121" type="curve" smooth="yes"/>
      <point x="209" y="567" type="line" smooth="yes"/>
      <point x="209" y="588"/>
      <point x="216" y="604"/>
      <point x="231" y="614" type="curve" smooth="yes"/>
      <point x="244" y="623"/>
      <point x="282" y="628"/>
      <point x="345" y="628" type="curve" smooth="yes"/>
      <point x="492" y="628"/>
      <point x="624" y="507"/>
      <point x="624" y="328" type="curve" smooth="yes"/>
      <point x="624" y="149"/>
      <point x="515" y="28"/>
      <point x="359" y="28" type="curve" smooth="yes"/>
    </contour>
  </outline>
</glyph>
<glyph name="J" format="1">
  <advance width="300"/>
  <unicode hex="004A"/>
  <outline>
    <contour>
      <point x="85" y="-200"/>
      <point x="126" y="-178"/>
      <point x="157" y="-134" type="curve" smooth="yes"/>
      <point x="177" y="-105"/>
      <point x="180" y="-102"/>
      <point x="193" y="-62" type="curve" smooth="yes"/>
      <point x="204" y="-27"/>
      <point x="210" y="41"/>
      <point x="210" y="142" type="curve" smooth="yes"/>
      <point x="210" y="551" type="line" smooth="yes"/>
      <point x="210" y="599"/>
      <point x="220" y="613"/>
      <point x="266" y="622" type="curve" smooth="yes"/>
      <point x="289" y="626"/>
      <point x="300" y="633"/>
      <point x="300" y="642" type="curve" smooth="yes"/>
      <point x="300" y="649"/>
      <point x="290" y="653"/>
      <point x="271" y="653" type="curve" smooth="yes"/>
      <point x="177" y="650" type="line"/>
      <point x="60" y="653" type="line" smooth="yes"/>
      <point x="41" y="653"/>
      <point x="31" y="649"/>
      <point x="31" y="642" type="curve" smooth="yes"/>
      <point x="31" y="633"/>
      <point x="43" y="626"/>
      <point x="66" y="622" type="curve" smooth="yes"/>
      <point x="113" y="613"/>
      <point x="130" y="596"/>
      <point x="130" y="551" type="curve" smooth="yes"/>
      <point x="130" y="0" type="line" smooth="yes"/>
      <point x="130" y="-105"/>
      <point x="108" y="-158"/>
      <point x="64" y="-158" type="curve" smooth="yes"/>
      <point x="45" y="-158"/>
      <point x="30" y="-149"/>
      <point x="18" y="-130" type="curve" smooth="yes"/>
      <point x="6" y="-112"/>
      <point x="-11" y="-103"/>
      <point x="-33" y="-103" type="curve" smooth="yes"/>
      <point x="-50" y="-103"/>
      <point x="-69" y="-132"/>
      <point x="-69" y="-156" type="curve" smooth="yes"/>
      <point x="-69" y="-169"/>
      <point x="-59" y="-179"/>
      <point x="-40" y="-187" type="curve"/>
      <point x="-21" y="-196"/>
      <point x="3" y="-200"/>
      <point x="34" y="-200" type="curve" smooth="yes"/>
    </contour>
  </outline>
</glyph>
<glyph name="a" format="1">
  <advance width="399"/>
  <unicode hex="0061"/>
  <outline>
    <contour>
      <point x="168" y="-14"/>
      <point x="207" y="8"/>
      <point x="226" y="25" type="curve"/>
      <point x="235" y="34"/>
      <point x="241" y="38"/>
      <point x="244" y="38" type="curve" smooth="yes"/>
      <point x="245" y="38"/>
      <point x="248" y="34"/>
      <point x="253" y="25" type="curve" smooth="yes"/>
      <point x="262" y="8"/>
      <point x="285" y="-14"/>
      <point x="318" y="-14" type="curve" smooth="yes"/>
      <point x="350" y="-14"/>
      <point x="390" y="19"/>
      <point x="398" y="36" type="curve"/>
      <point x="398" y="37" type="line" smooth="yes"/>
      <point x="398" y="43"/>
      <point x="392" y="48"/>
      <point x="387" y="48" type="curve" smooth="yes"/>
      <point x="385" y="48"/>
      <point x="383" y="47"/>
      <point x="382" y="46" type="curve"/>
      <point x="372" y="37"/>
      <point x="359" y="32"/>
      <point x="342" y="32" type="curve" smooth="yes"/>
      <point x="318" y="32"/>
      <point x="306" y="56"/>
      <point x="306" y="103" type="curve" smooth="yes"/>
      <point x="306" y="109" type="line"/>
      <point x="311" y="325" type="line" smooth="yes"/>
      <point x="312" y="374"/>
      <point x="276" y="414"/>
      <point x="229" y="414" type="curve" smooth="yes"/>
      <point x="205" y="414"/>
      <point x="179" y="407"/>
      <point x="151" y="392" type="curve" smooth="yes"/>
      <point x="95" y="362"/>
      <point x="40" y="319"/>
      <point x="40" y="274" type="curve" smooth="yes"/>
      <point x="40" y="268"/>
      <point x="43" y="265"/>
      <point x="50" y="265" type="curve" smooth="yes"/>
      <point x="63" y="265"/>
      <point x="117" y="288"/>
      <point x="117" y="300" type="curve"/>
      <point x="116" y="314" type="line"/>
      <point x="116" y="322"/>
      <point x="118" y="329"/>
      <point x="121" y="335" type="curve"/>
      <point x="128" y="347"/>
      <point x="157" y="365"/>
      <point x="186" y="365" type="curve" smooth="yes"/>
      <point x="214" y="365"/>
      <point x="240" y="336"/>
      <point x="240" y="301" type="curve" smooth="yes"/>
      <point x="240" y="299" type="line"/>
      <point x="238" y="237" type="line" smooth="yes"/>
      <point x="237" y="210"/>
      <point x="235" y="208"/>
      <point x="210" y="197" type="curve" smooth="yes"/>
      <point x="108" y="155" type="line" smooth="yes"/>
      <point x="59" y="135"/>
      <point x="35" y="105"/>
      <point x="35" y="65" type="curve" smooth="yes"/>
      <point x="35" y="26"/>
      <point x="79" y="-14"/>
      <point x="124" y="-14" type="curve" smooth="yes"/>
    </contour>
    <contour>
      <point x="139" y="32"/>
      <point x="115" y="52"/>
      <point x="115" y="87" type="curve" smooth="yes"/>
      <point x="115" y="117"/>
      <point x="148" y="143"/>
      <point x="215" y="166" type="curve"/>
      <point x="220" y="168"/>
      <point x="224" y="169"/>
      <point x="229" y="169" type="curve" smooth="yes"/>
      <point x="235" y="169"/>
      <point x="238" y="164"/>
      <point x="238" y="153" type="curve" smooth="yes"/>
      <point x="238" y="151"/>
      <point x="238" y="150"/>
      <point x="238" y="148" type="curve" smooth="yes"/>
      <point x="236" y="99" type="line" smooth="yes"/>
      <point x="235" y="58"/>
      <point x="201" y="32"/>
      <point x="170" y="32" type="curve" smooth="yes"/>
    </contour>
  </outline>
</glyph>
<glyph name="r" format="1">
  <advance width="334"/>
  <unicode hex="0072"/>
  <outline>
    <contour>
      <point x="130" y="2" type="line"/>
      <point x="217" y="-3" type="line"/>
      <point x="230" y="-3"/>
      <point x="237" y="0"/>
      <point x="237" y="7" type="curve" smooth="yes"/>
      <point x="237" y="13"/>
      <point x="229" y="19"/>
      <point x="214" y="24" type="curve" smooth="yes"/>
      <point x="179" y="35"/>
      <point x="161" y="49"/>
      <point x="160" y="67" type="curve"/>
      <point x="160" y="264" type="line" smooth="yes"/>
      <point x="160" y="325"/>
      <point x="191" y="348"/>
      <point x="230" y="348" type="curve" smooth="yes"/>
      <point x="237" y="348"/>
      <point x="247" y="345"/>
      <point x="261" y="339" type="curve" smooth="yes"/>
      <point x="275" y="333"/>
      <point x="286" y="330"/>
      <point x="293" y="330" type="curve" smooth="yes"/>
      <point x="308" y="330"/>
      <point x="329" y="361"/>
      <point x="329" y="381" type="curve" smooth="yes"/>
      <point x="329" y="401"/>
      <point x="309" y="414"/>
      <point x="281" y="414" type="curve" smooth="yes"/>
      <point x="252" y="414"/>
      <point x="221" y="400"/>
      <point x="189" y="371" type="curve"/>
      <point x="186" y="369"/>
      <point x="180" y="362"/>
      <point x="171" y="351" type="curve"/>
      <point x="168" y="348"/>
      <point x="167" y="346"/>
      <point x="166" y="346" type="curve" smooth="yes"/>
      <point x="165" y="346"/>
      <point x="165" y="354"/>
      <point x="166" y="371" type="curve" smooth="yes"/>
      <point x="167" y="388"/>
      <point x="167" y="405"/>
      <point x="167" y="423" type="curve"/>
      <point x="166" y="428"/>
      <point x="164" y="430"/>
      <point x="163" y="430" type="curve" smooth="yes"/>
      <point x="160" y="430" type="line"/>
      <point x="160" y="429"/>
      <point x="156" y="427"/>
      <point x="149" y="423" type="curve"/>
      <point x="142" y="418"/>
      <point x="127" y="409"/>
      <point x="104" y="394" type="curve" smooth="yes"/>
      <point x="92" y="386"/>
      <point x="73" y="379"/>
      <point x="48" y="374" type="curve" smooth="yes"/>
      <point x="43" y="373"/>
      <point x="41" y="369"/>
      <point x="41" y="362" type="curve" smooth="yes"/>
      <point x="41" y="355"/>
      <point x="44" y="350"/>
      <point x="49" y="349" type="curve" smooth="yes"/>
      <point x="76" y="343"/>
      <point x="90" y="319"/>
      <point x="90" y="277" type="curve" smooth="yes"/>
      <point x="90" y="62" type="line" smooth="yes"/>
      <point x="90" y="53"/>
      <point x="88" y="46"/>
      <point x="84" y="41" type="curve" smooth="yes"/>
      <point x="75" y="30"/>
      <point x="71" y="30"/>
      <point x="47" y="22" type="curve" smooth="yes"/>
      <point x="35" y="18"/>
      <point x="29" y="13"/>
      <point x="29" y="7" type="curve" smooth="yes"/>
      <point x="29" y="0"/>
      <point x="36" y="-3"/>
      <point x="49" y="-3" type="curve"/>
    </contour>
  </outline>
</glyph>
<glyph name="bar" format="1">
  <advance width="260"/>
  <unicode hex="007C"/>
  <outline>
    <contour>
      <point x="129" y="-289"/>
      <point x="160" y="-282"/>
      <point x="160" y="-265" type="curve" smooth="yes"/>
      <point x="160" y="694" type="line" smooth="yes"/>
      <point x="160" y="701"/>
      <point x="154" y="707"/>
      <point x="144" y="707" type="curve" smooth="yes"/>
      <point x="134" y="707"/>
      <point x="100" y="695"/>
      <point x="100" y="676" type="curve" smooth="yes"/>
      <point x="100" y="-275" type="line" smooth="yes"/>
      <point x="100" y="-282"/>
      <point x="105" y="-289"/>
      <point x="117" y="-289" type="curve" smooth="yes"/>
    </contour>
  </outline>
</glyph>
<glyph name="brokenbar" format="1">
  <advance width="260"/>
  <unicode hex="00A6"/>
  <outline>
    <contour>
      <point x="129" y="-290"/>
      <point x="160" y="-283"/>
      <point x="160" y="-266" type="curve" smooth="yes"/>
      <point x="160" y="157" type="line" smooth="yes"/>
      <point x="160" y="168"/>
      <point x="153" y="179"/>
      <point x="145" y="179" type="curve" smooth="yes"/>
      <point x="137" y="179"/>
      <point x="100" y="165"/>
      <point x="100" y="156" type="curve" smooth="yes"/>
      <point x="100" y="-276" type="line" smooth="yes"/>
      <point x="100" y="-283"/>
      <point x="105" y="-290"/>
      <point x="117" y="-290" type="curve" smooth="yes"/>
    </contour>
    <contour>
      <point x="123" y="276"/>
      <point x="160" y="288"/>
      <point x="160" y="297" type="curve" smooth="yes"/>
      <point x="160" y="692" type="line" smooth="yes"/>
      <point x="160" y="699"/>
      <point x="154" y="705"/>
      <point x="144" y="705" type="curve" smooth="yes"/>
      <point x="134" y="705"/>
      <point x="100" y="693"/>
      <point x="100" y="674" type="curve" smooth="yes"/>
      <point x="100" y="299" type="line" smooth="yes"/>
      <point x="100" y="288"/>
      <point x="106" y="276"/>
      <point x="115" y="276" type="curve" smooth="yes"/>
    </contour>
  </outline>
</glyph>
<glyph name="Igrave" format="1">
  <advance width="340"/>
  <unicode hex="00CC"/>
  <outline>
    <contour>
      <point x="219" y="699"/>
      <point x="217" y="697"/>
      <point x="213" y="697" type="curve" smooth="yes"/>
      <point x="209" y="697"/>
      <point x="203" y="700"/>
      <point x="195" y="706" type="curve" smooth="yes"/>
      <point x="138" y="749"/>
      <point x="95" y="783"/>
      <point x="65" y="808" type="curve" smooth="yes"/>
      <point x="56" y="816"/>
      <point x="52" y="823"/>
      <point x="52" y="828" type="curve" smooth="yes"/>
      <point x="52" y="839"/>
      <point x="91" y="850"/>
      <point x="112" y="850" type="curve" smooth="yes"/>
      <point x="123" y="850"/>
      <point x="131" y="846"/>
      <point x="137" y="837" type="curve" smooth="yes"/>
      <point x="192" y="758"/>
      <point x="219" y="713"/>
      <point x="219" y="703" type="curve" smooth="yes"/>
    </contour>
    <contour>
      <point x="176" y="0" type="line"/>
      <point x="48" y="-5" type="line"/>
      <point x="29" y="-5"/>
      <point x="19" y="-1"/>
      <point x="19" y="7" type="curve" smooth="yes"/>
      <point x="19" y="14"/>
      <point x="31" y="20"/>
      <point x="56" y="25" type="curve" smooth="yes"/>
      <point x="104" y="33"/>
      <point x="130" y="53"/>
      <point x="130" y="98" type="curve" smooth="yes"/>
      <point x="130" y="550" type="line" smooth="yes"/>
      <point x="130" y="597"/>
      <point x="113" y="613"/>
      <point x="66" y="622" type="curve" smooth="yes"/>
      <point x="42" y="626"/>
      <point x="30" y="633"/>
      <point x="30" y="642" type="curve" smooth="yes"/>
      <point x="30" y="649"/>
      <point x="40" y="653"/>
      <point x="59" y="653" type="curve" smooth="yes"/>
      <point x="176" y="650" type="line"/>
      <point x="285" y="653" type="line" smooth="yes"/>
      <point x="304" y="653"/>
      <point x="314" y="649"/>
      <point x="314" y="642" type="curve" smooth="yes"/>
      <point x="314" y="633"/>
      <point x="302" y="626"/>
      <point x="278" y="622" type="curve" smooth="yes"/>
      <point x="230" y="613"/>
      <point x="210" y="595"/>
      <point x="210" y="550" type="curve" smooth="yes"/>
      <point x="210" y="98" type="line" smooth="yes"/>
      <point x="210" y="53"/>
      <point x="237" y="33"/>
      <point x="286" y="25" type="curve"/>
      <point x="310" y="20"/>
      <point x="322" y="14"/>
      <point x="322" y="7" type="curve" smooth="yes"/>
      <point x="322" y="-1"/>
      <point x="312" y="-5"/>
      <point x="293" y="-5" type="curve"/>
    </contour>
  </outline>
</glyph>
<glyph name="Oacute" format="1">
  <advance width="763"/>
  <unicode hex="00D3"/>
  <outline>
    <contour>
      <point x="361" y="700"/>
      <point x="355" y="697"/>
      <point x="351" y="697" type="curve" smooth="yes"/>
      <point x="347" y="697"/>
      <point x="345" y="699"/>
      <point x="345" y="704" type="curve" smooth="yes"/>
      <point x="345" y="713"/>
      <point x="372" y="758"/>
      <point x="427" y="837" type="curve" smooth="yes"/>
      <point x="433" y="846"/>
      <point x="441" y="850"/>
      <point x="452" y="850" type="curve" smooth="yes"/>
      <point x="473" y="850"/>
      <point x="512" y="839"/>
      <point x="512" y="828" type="curve" smooth="yes"/>
      <point x="512" y="823"/>
      <point x="508" y="816"/>
      <point x="499" y="808" type="curve" smooth="yes"/>
      <point x="469" y="783"/>
      <point x="426" y="749"/>
      <point x="369" y="706" type="curve" smooth="yes"/>
    </contour>
    <contour>
      <point x="621" y="497"/>
      <point x="530" y="625"/>
      <point x="381" y="625" type="curve" smooth="yes"/>
      <point x="232" y="625"/>
      <point x="142" y="502"/>
      <point x="142" y="340" type="curve" smooth="yes"/>
      <point x="142" y="178"/>
      <point x="251" y="25"/>
      <point x="396" y="25" type="curve" smooth="yes"/>
      <point x="541" y="25"/>
      <point x="621" y="128"/>
      <point x="621" y="313" type="curve" smooth="yes"/>
    </contour>
    <contour>
      <point x="45" y="444"/>
      <point x="95" y="550"/>
      <point x="202" y="615" type="curve" smooth="yes"/>
      <point x="255" y="648"/>
      <point x="318" y="664"/>
      <point x="390" y="664" type="curve" smooth="yes"/>
      <point x="569" y="664"/>
      <point x="718" y="527"/>
      <point x="718" y="335" type="curve" smooth="yes"/>
      <point x="718" y="241"/>
      <point x="689" y="160"/>
      <point x="632" y="93" type="curve" smooth="yes"/>
      <point x="577" y="28"/>
      <point x="487" y="-14"/>
      <point x="382" y="-14" type="curve" smooth="yes"/>
      <point x="202" y="-14"/>
      <point x="45" y="133"/>
      <point x="45" y="320" type="curve" smooth="yes"/>
    </contour>
  </outline>
</glyph>
<glyph name="Uacute" format="1">
  <advance width="738"/>
  <unicode hex="00DA"/>
  <outline>
    <contour>
      <point x="368" y="700"/>
      <point x="362" y="697"/>
      <point x="358" y="697" type="curve" smooth="yes"/>
      <point x="354" y="697"/>
      <point x="352" y="699"/>
      <point x="352" y="704" type="curve" smooth="yes"/>
      <point x="352" y="713"/>
      <point x="379" y="758"/>
      <point x="434" y="837" type="curve" smooth="yes"/>
      <point x="440" y="846"/>
      <point x="448" y="850"/>
      <point x="459" y="850" type="curve" smooth="yes"/>
      <point x="480" y="850"/>
      <point x="519" y="839"/>
      <point x="519" y="828" type="curve" smooth="yes"/>
      <point x="519" y="823"/>
      <point x="515" y="816"/>
      <point x="506" y="808" type="curve" smooth="yes"/>
      <point x="476" y="783"/>
      <point x="433" y="749"/>
      <point x="376" y="706" type="curve" smooth="yes"/>
    </contour>
    <contour>
      <point x="618" y="650" type="line"/>
      <point x="699" y="653" type="line"/>
      <point x="718" y="653"/>
      <point x="728" y="649"/>
      <point x="728" y="642" type="curve" smooth="yes"/>
      <point x="728" y="633"/>
      <point x="717" y="627"/>
      <point x="695" y="622" type="curve" smooth="yes"/>
      <point x="664" y="616"/>
      <point x="647" y="591"/>
      <point x="645" y="547" type="curve"/>
      <point x="644" y="540"/>
      <point x="641" y="441"/>
      <point x="635" y="250" type="curve" smooth="yes"/>
      <point x="630" y="95"/>
      <point x="524" y="-14"/>
      <point x="380" y="-14" type="curve" smooth="yes"/>
      <point x="191" y="-14"/>
      <point x="103" y="84"/>
      <point x="103" y="281" type="curve" smooth="yes"/>
      <point x="103" y="547" type="line" smooth="yes"/>
      <point x="103" y="587"/>
      <point x="88" y="611"/>
      <point x="57" y="620" type="curve" smooth="yes"/>
      <point x="35" y="626"/>
      <point x="24" y="633"/>
      <point x="24" y="642" type="curve" smooth="yes"/>
      <point x="24" y="649"/>
      <point x="34" y="653"/>
      <point x="53" y="653" type="curve" smooth="yes"/>
      <point x="149" y="650" type="line"/>
      <point x="229" y="652" type="line" smooth="yes"/>
      <point x="248" y="652"/>
      <point x="258" y="648"/>
      <point x="258" y="641" type="curve" smooth="yes"/>
      <point x="258" y="635"/>
      <point x="247" y="628"/>
      <point x="225" y="621" type="curve"/>
      <point x="206" y="616"/>
      <point x="183" y="585"/>
      <point x="183" y="549" type="curve" smooth="yes"/>
      <point x="183" y="253" type="line" smooth="yes"/>
      <point x="183" y="133"/>
      <point x="281" y="36"/>
      <point x="404" y="36" type="curve" smooth="yes"/>
      <point x="527" y="36"/>
      <point x="592" y="135"/>
      <point x="592" y="296" type="curve" smooth="yes"/>
      <point x="592" y="337"/>
      <point x="591" y="408"/>
      <point x="588" y="511" type="curve" smooth="yes"/>
      <point x="587" y="576"/>
      <point x="573" y="613"/>
      <point x="547" y="620" type="curve" smooth="yes"/>
      <point x="525" y="626"/>
      <point x="514" y="633"/>
      <point x="514" y="640" type="curve" smooth="yes"/>
      <point x="514" y="647"/>
      <point x="524" y="651"/>
      <point x="543" y="651" type="curve" smooth="yes"/>
    </contour>
  </outline>
</glyph>
<glyph name="germandbls" format="1">
  <advance width="505"/>
  <unicode hex="00DF"/>
  <outline>
    <contour>
      <point x="126" y="2" type="line"/>
      <point x="48" y="-3" type="line"/>
      <point x="33" y="-3"/>
      <point x="25" y="0"/>
      <point x="25" y="7" type="curve" smooth="yes"/>
      <point x="25" y="13"/>
      <point x="33" y="19"/>
      <point x="48" y="24" type="curve" smooth="yes"/>
      <point x="76" y="33"/>
      <point x="90" y="48"/>
      <point x="90" y="69" type="curve" smooth="yes"/>
      <point x="90" y="350" type="line"/>
      <point x="69" y="350"/>
      <point x="52" y="351"/>
      <point x="38" y="352" type="curve"/>
      <point x="34" y="353"/>
      <point x="27" y="362"/>
      <point x="27" y="369" type="curve" smooth="yes"/>
      <point x="27" y="372"/>
      <point x="28" y="375"/>
      <point x="31" y="376" type="curve"/>
      <point x="46" y="380"/>
      <point x="66" y="389"/>
      <point x="90" y="402" type="curve"/>
      <point x="90" y="511"/>
      <point x="122" y="597"/>
      <point x="167" y="641" type="curve" smooth="yes"/>
      <point x="212" y="684"/>
      <point x="257" y="706"/>
      <point x="303" y="706" type="curve" smooth="yes"/>
      <point x="394" y="706"/>
      <point x="455" y="644"/>
      <point x="455" y="572" type="curve" smooth="yes"/>
      <point x="455" y="535"/>
      <point x="440" y="502"/>
      <point x="409" y="473" type="curve" smooth="yes"/>
      <point x="376" y="443" type="line"/>
      <point x="373" y="440"/>
      <point x="368" y="435"/>
      <point x="360" y="428" type="curve" smooth="yes"/>
      <point x="352" y="421"/>
      <point x="346" y="415"/>
      <point x="342" y="410" type="curve"/>
      <point x="331" y="398"/>
      <point x="325" y="384"/>
      <point x="325" y="367" type="curve" smooth="yes"/>
      <point x="325" y="350"/>
      <point x="331" y="335"/>
      <point x="344" y="323" type="curve" smooth="yes"/>
      <point x="437" y="233" type="line"/>
      <point x="462" y="207"/>
      <point x="475" y="178"/>
      <point x="475" y="145" type="curve" smooth="yes"/>
      <point x="475" y="79"/>
      <point x="416" y="22"/>
      <point x="378" y="3" type="curve" smooth="yes"/>
      <point x="359" y="-7"/>
      <point x="333" y="-12"/>
      <point x="300" y="-12" type="curve" smooth="yes"/>
      <point x="280" y="-12"/>
      <point x="242" y="8"/>
      <point x="242" y="29" type="curve" smooth="yes"/>
      <point x="242" y="50"/>
      <point x="255" y="84"/>
      <point x="271" y="84" type="curve" smooth="yes"/>
      <point x="273" y="84"/>
      <point x="276" y="83"/>
      <point x="280" y="80" type="curve" smooth="yes"/>
      <point x="311" y="56"/>
      <point x="339" y="44"/>
      <point x="366" y="44" type="curve" smooth="yes"/>
      <point x="397" y="44"/>
      <point x="423" y="63"/>
      <point x="423" y="93" type="curve" smooth="yes"/>
      <point x="423" y="123"/>
      <point x="409" y="144"/>
      <point x="395" y="160" type="curve"/>
      <point x="388" y="167"/>
      <point x="375" y="179"/>
      <point x="357" y="196" type="curve" smooth="yes"/>
      <point x="287" y="264" type="line" smooth="yes"/>
      <point x="260" y="289"/>
      <point x="246" y="313"/>
      <point x="246" y="336" type="curve" smooth="yes"/>
      <point x="246" y="364"/>
      <point x="265" y="385"/>
      <point x="306" y="418" type="curve" smooth="yes"/>
      <point x="347" y="451"/>
      <point x="392" y="485"/>
      <point x="392" y="550" type="curve" smooth="yes"/>
      <point x="392" y="615"/>
      <point x="362" y="665"/>
      <point x="273" y="665" type="curve" smooth="yes"/>
      <point x="206" y="665"/>
      <point x="160" y="603"/>
      <point x="160" y="475" type="curve" smooth="yes"/>
      <point x="160" y="69" type="line" smooth="yes"/>
      <point x="160" y="48"/>
      <point x="174" y="33"/>
      <point x="202" y="24" type="curve" smooth="yes"/>
      <point x="217" y="19"/>
      <point x="225" y="13"/>
      <point x="225" y="7" type="curve" smooth="yes"/>
      <point x="225" y="0"/>
      <point x="217" y="-3"/>
      <point x="202" y="-3" type="curve"/>
    </contour>
  </outline>
</glyph>
<glyph name="idieresis" format="1">
  <advance width="245"/>
  <unicode hex="00EF"/>
  <outline>
    <contour>
      <point x="184" y="588"/>
      <point x="195" y="593"/>
      <point x="208" y="593" type="curve" smooth="yes"/>
      <point x="233" y="593"/>
      <point x="258" y="568"/>
      <point x="258" y="543" type="curve" smooth="yes"/>
      <point x="258" y="518"/>
      <point x="233" y="493"/>
      <point x="208" y="493" type="curve" smooth="yes"/>
      <point x="183" y="493"/>
      <point x="158" y="518"/>
      <point x="158" y="543" type="curve" smooth="yes"/>
      <point x="158" y="556"/>
      <point x="163" y="567"/>
      <point x="174" y="578" type="curve" smooth="yes"/>
    </contour>
    <contour>
      <point x="7" y="588"/>
      <point x="18" y="593"/>
      <point x="31" y="593" type="curve" smooth="yes"/>
      <point x="56" y="593"/>
      <point x="81" y="568"/>
      <point x="81" y="543" type="curve" smooth="yes"/>
      <point x="81" y="518"/>
      <point x="56" y="493"/>
      <point x="31" y="493" type="curve" smooth="yes"/>
      <point x="6" y="493"/>
      <point x="-19" y="518"/>
      <point x="-19" y="543" type="curve" smooth="yes"/>
      <point x="-19" y="556"/>
      <point x="-14" y="567"/>
      <point x="-3" y="578" type="curve" smooth="yes"/>
    </contour>
    <contour>
      <point x="125" y="2" type="line"/>
      <point x="44" y="-3" type="line"/>
      <point x="31" y="-3"/>
      <point x="24" y="0"/>
      <point x="24" y="7" type="curve" smooth="yes"/>
      <point x="24" y="13"/>
      <point x="33" y="19"/>
      <point x="52" y="25" type="curve" smooth="yes"/>
      <point x="71" y="31"/>
      <point x="82" y="37"/>
      <point x="85" y="44" type="curve"/>
      <point x="88" y="50"/>
      <point x="90" y="56"/>
      <point x="90" y="62" type="curve" smooth="yes"/>
      <point x="90" y="279" type="line" smooth="yes"/>
      <point x="90" y="321"/>
      <point x="74" y="345"/>
      <point x="43" y="352" type="curve" smooth="yes"/>
      <point x="38" y="353"/>
      <point x="35" y="358"/>
      <point x="35" y="365" type="curve" smooth="yes"/>
      <point x="35" y="372"/>
      <point x="37" y="376"/>
      <point x="42" y="377" type="curve"/>
      <point x="75" y="385"/>
      <point x="109" y="401"/>
      <point x="144" y="424" type="curve" smooth="yes"/>
      <point x="155" y="431"/>
      <point x="161" y="434"/>
      <point x="162" y="434" type="curve" smooth="yes"/>
      <point x="167" y="434"/>
      <point x="169" y="432"/>
      <point x="169" y="429" type="curve"/>
      <point x="163" y="368"/>
      <point x="160" y="323"/>
      <point x="160" y="294" type="curve" smooth="yes"/>
      <point x="160" y="62" type="line" smooth="yes"/>
      <point x="160" y="35"/>
      <point x="178" y="32"/>
      <point x="206" y="23" type="curve"/>
      <point x="219" y="18"/>
      <point x="226" y="13"/>
      <point x="226" y="7" type="curve" smooth="yes"/>
      <point x="226" y="0"/>
      <point x="219" y="-3"/>
      <point x="206" y="-3" type="curve"/>
    </contour>
  </outline>
</glyph>
<glyph name="ntilde" format="1">
  <advance width="527"/>
  <unicode hex="00F1"/>
  <outline>
    <contour>
      <point x="203" y="507" type="line"/>
      <point x="193" y="507"/>
      <point x="181" y="501"/>
      <point x="168" y="489" type="curve"/>
      <point x="155" y="476"/>
      <point x="147" y="470"/>
      <point x="146" y="470" type="curve" smooth="yes"/>
      <point x="137" y="470"/>
      <point x="132" y="477"/>
      <point x="132" y="490" type="curve" smooth="yes"/>
      <point x="132" y="503"/>
      <point x="197" y="574"/>
      <point x="220" y="574" type="curve"/>
      <point x="327" y="566" type="line"/>
      <point x="341" y="566"/>
      <point x="354" y="572"/>
      <point x="366" y="583" type="curve"/>
      <point x="377" y="594"/>
      <point x="383" y="600"/>
      <point x="384" y="600" type="curve" smooth="yes"/>
      <point x="395" y="600"/>
      <point x="400" y="594"/>
      <point x="400" y="583" type="curve" smooth="yes"/>
      <point x="400" y="570"/>
      <point x="338" y="500"/>
      <point x="315" y="500" type="curve"/>
    </contour>
    <contour>
      <point x="405" y="2" type="line"/>
      <point x="323" y="-3" type="line"/>
      <point x="310" y="-3"/>
      <point x="303" y="0"/>
      <point x="303" y="7" type="curve" smooth="yes"/>
      <point x="303" y="13"/>
      <point x="311" y="19"/>
      <point x="326" y="24" type="curve"/>
      <point x="327" y="24"/>
      <point x="328" y="24"/>
      <point x="330" y="25" type="curve"/>
      <point x="352" y="32"/>
      <point x="365" y="41"/>
      <point x="368" y="52" type="curve"/>
      <point x="369" y="55"/>
      <point x="369" y="59"/>
      <point x="369" y="62" type="curve" smooth="yes"/>
      <point x="369" y="272" type="line" smooth="yes"/>
      <point x="369" y="329"/>
      <point x="335" y="365"/>
      <point x="271" y="365" type="curve" smooth="yes"/>
      <point x="206" y="365"/>
      <point x="160" y="341"/>
      <point x="160" y="268" type="curve" smooth="yes"/>
      <point x="160" y="62" type="line" smooth="yes"/>
      <point x="160" y="35"/>
      <point x="178" y="32"/>
      <point x="206" y="23" type="curve"/>
      <point x="219" y="18"/>
      <point x="226" y="13"/>
      <point x="226" y="7" type="curve" smooth="yes"/>
      <point x="226" y="0"/>
      <point x="219" y="-3"/>
      <point x="206" y="-3" type="curve"/>
      <point x="125" y="2" type="line"/>
      <point x="44" y="-3" type="line"/>
      <point x="31" y="-3"/>
      <point x="24" y="0"/>
      <point x="24" y="7" type="curve" smooth="yes"/>
      <point x="24" y="19"/>
      <point x="56" y="27"/>
      <point x="60" y="28" type="curve"/>
      <point x="63" y="28"/>
      <point x="77" y="35"/>
      <point x="80" y="39" type="curve"/>
      <point x="87" y="46"/>
      <point x="90" y="54"/>
      <point x="90" y="62" type="curve" smooth="yes"/>
      <point x="90" y="277" type="line" smooth="yes"/>
      <point x="90" y="320"/>
      <point x="76" y="344"/>
      <point x="49" y="349" type="curve" smooth="yes"/>
      <point x="44" y="350"/>
      <point x="41" y="355"/>
      <point x="41" y="362" type="curve" smooth="yes"/>
      <point x="41" y="369"/>
      <point x="43" y="373"/>
      <point x="48" y="374" type="curve" smooth="yes"/>
      <point x="83" y="382"/>
      <point x="119" y="400"/>
      <point x="158" y="429" type="curve"/>
      <point x="159" y="430"/>
      <point x="160" y="430"/>
      <point x="162" y="430" type="curve" smooth="yes"/>
      <point x="163" y="430"/>
      <point x="165" y="427"/>
      <point x="167" y="421" type="curve"/>
      <point x="160" y="356" type="line"/>
      <point x="160" y="351"/>
      <point x="160" y="349"/>
      <point x="161" y="348" type="curve"/>
      <point x="198" y="379"/>
      <point x="269" y="414"/>
      <point x="329" y="414" type="curve" smooth="yes"/>
      <point x="389" y="414"/>
      <point x="439" y="354"/>
      <point x="439" y="275" type="curve" smooth="yes"/>
      <point x="439" y="62" type="line" smooth="yes"/>
      <point x="439" y="35"/>
      <point x="457" y="32"/>
      <point x="485" y="23" type="curve"/>
      <point x="498" y="18"/>
      <point x="505" y="13"/>
      <point x="505" y="7" type="curve" smooth="yes"/>
      <point x="505" y="0"/>
      <point x="498" y="-3"/>
      <point x="485" y="-3" type="curve"/>
    </contour>
  </outline>
</glyph>
<glyph name="oacute" format="1">
  <advance width="495"/>
  <unicode hex="00F3"/>
  <outline>
    <contour>
      <point x="371" y="614"/>
      <point x="293" y="520"/>
      <point x="259" y="484" type="curve" smooth="yes"/>
      <point x="242" y="465"/>
      <point x="230" y="456"/>
      <point x="224" y="456" type="curve" smooth="yes"/>
      <point x="217" y="456"/>
      <point x="214" y="462"/>
      <point x="214" y="473" type="curve" smooth="yes"/>
      <point x="214" y="484"/>
      <point x="241" y="537"/>
      <point x="295" y="631" type="curve" smooth="yes"/>
      <point x="302" y="643"/>
      <point x="311" y="649"/>
      <point x="322" y="649" type="curve" smooth="yes"/>
      <point x="355" y="649"/>
      <point x="371" y="641"/>
      <point x="371" y="626" type="curve" smooth="yes"/>
    </contour>
    <contour>
      <point x="157" y="383"/>
      <point x="117" y="325"/>
      <point x="117" y="210" type="curve" smooth="yes"/>
      <point x="117" y="107"/>
      <point x="178" y="16"/>
      <point x="255" y="16" type="curve" smooth="yes"/>
      <point x="355" y="16"/>
      <point x="378" y="84"/>
      <point x="378" y="187" type="curve" smooth="yes"/>
      <point x="378" y="290"/>
      <point x="318" y="383"/>
      <point x="237" y="383" type="curve" smooth="yes"/>
    </contour>
    <contour>
      <point x="35" y="302"/>
      <point x="135" y="414"/>
      <point x="252" y="414" type="curve" smooth="yes"/>
      <point x="369" y="414"/>
      <point x="460" y="324"/>
      <point x="460" y="207" type="curve" smooth="yes"/>
      <point x="460" y="90"/>
      <point x="377" y="-14"/>
      <point x="234" y="-14" type="curve" smooth="yes"/>
      <point x="121" y="-14"/>
      <point x="35" y="71"/>
      <point x="35" y="187" type="curve" smooth="yes"/>
    </contour>
  </outline>
</glyph>
<glyph name="ccaron" format="1">
  <advance width="377"/>
  <unicode hex="010D"/>
  <outline>
    <contour>
      <point x="228" y="547"/>
      <point x="230" y="547"/>
      <point x="233" y="550" type="curve"/>
      <point x="284" y="621"/>
      <point x="316" y="657"/>
      <point x="328" y="657" type="curve" smooth="yes"/>
      <point x="334" y="657"/>
      <point x="337" y="652"/>
      <point x="337" y="642" type="curve" smooth="yes"/>
      <point x="337" y="631"/>
      <point x="308" y="581"/>
      <point x="249" y="490" type="curve"/>
      <point x="242" y="478"/>
      <point x="235" y="472"/>
      <point x="229" y="472" type="curve" smooth="yes"/>
      <point x="223" y="472"/>
      <point x="216" y="478"/>
      <point x="209" y="490" type="curve"/>
      <point x="150" y="581"/>
      <point x="121" y="631"/>
      <point x="121" y="642" type="curve" smooth="yes"/>
      <point x="121" y="652"/>
      <point x="124" y="657"/>
      <point x="131" y="657" type="curve" smooth="yes"/>
      <point x="143" y="657"/>
      <point x="175" y="621"/>
      <point x="226" y="550" type="curve" smooth="yes"/>
    </contour>
    <contour>
      <point x="371" y="338"/>
      <point x="346" y="319"/>
      <point x="330" y="319" type="curve" smooth="yes"/>
      <point x="322" y="319"/>
      <point x="315" y="322"/>
      <point x="308" y="329" type="curve"/>
      <point x="272" y="368"/>
      <point x="261" y="376"/>
      <point x="214" y="376" type="curve" smooth="yes"/>
      <point x="145" y="376"/>
      <point x="104" y="309"/>
      <point x="104" y="219" type="curve" smooth="yes"/>
      <point x="104" y="129"/>
      <point x="170" y="38"/>
      <point x="263" y="38" type="curve" smooth="yes"/>
      <point x="303" y="38"/>
      <point x="323" y="52"/>
      <point x="351" y="88" type="curve"/>
      <point x="354" y="91"/>
      <point x="357" y="93"/>
      <point x="360" y="93" type="curve" smooth="yes"/>
      <point x="365" y="93"/>
      <point x="372" y="86"/>
      <point x="372" y="79" type="curve" smooth="yes"/>
      <point x="372" y="39"/>
      <point x="290" y="-14"/>
      <point x="200" y="-14" type="curve" smooth="yes"/>
      <point x="110" y="-14"/>
      <point x="35" y="72"/>
      <point x="35" y="188" type="curve" smooth="yes"/>
      <point x="35" y="304"/>
      <point x="128" y="413"/>
      <point x="242" y="413" type="curve" smooth="yes"/>
      <point x="299" y="413"/>
      <point x="340" y="397"/>
      <point x="366" y="365" type="curve"/>
      <point x="369" y="360"/>
      <point x="371" y="355"/>
      <point x="371" y="350" type="curve" smooth="yes"/>
    </contour>
  </outline>
</glyph>
<glyph name="Ibreve" format="1">
  <advance width="340"/>
  <unicode hex="012C"/>
  <outline>
    <contour>
      <point x="31" y="838"/>
      <point x="34" y="846"/>
      <point x="41" y="846" type="curve" smooth="yes"/>
      <point x="48" y="846"/>
      <point x="55" y="839"/>
      <point x="64" y="824" type="curve"/>
      <point x="80" y="795"/>
      <point x="120" y="762"/>
      <point x="181" y="762" type="curve" smooth="yes"/>
      <point x="242" y="762"/>
      <point x="282" y="795"/>
      <point x="299" y="824" type="curve"/>
      <point x="307" y="839"/>
      <point x="314" y="846"/>
      <point x="321" y="846" type="curve" smooth="yes"/>
      <point x="328" y="846"/>
      <point x="331" y="838"/>
      <point x="331" y="822" type="curve" smooth="yes"/>
      <point x="331" y="757"/>
      <point x="260" y="692"/>
      <point x="180" y="692" type="curve" smooth="yes"/>
      <point x="100" y="692"/>
      <point x="31" y="749"/>
      <point x="31" y="822" type="curve" smooth="yes"/>
    </contour>
    <contour>
      <point x="176" y="0" type="line"/>
      <point x="48" y="-5" type="line"/>
      <point x="29" y="-5"/>
      <point x="19" y="-1"/>
      <point x="19" y="7" type="curve" smooth="yes"/>
      <point x="19" y="14"/>
      <point x="31" y="20"/>
      <point x="56" y="25" type="curve" smooth="yes"/>
      <point x="104" y="33"/>
      <point x="130" y="53"/>
      <point x="130" y="98" type="curve" smooth="yes"/>
      <point x="130" y="550" type="line" smooth="yes"/>
      <point x="130" y="597"/>
      <point x="113" y="613"/>
      <point x="66" y="622" type="curve" smooth="yes"/>
      <point x="42" y="626"/>
      <point x="30" y="633"/>
      <point x="30" y="642" type="curve" smooth="yes"/>
      <point x="30" y="649"/>
      <point x="40" y="653"/>
      <point x="59" y="653" type="curve" smooth="yes"/>
      <point x="176" y="650" type="line"/>
      <point x="285" y="653" type="line" smooth="yes"/>
      <point x="304" y="653"/>
      <point x="314" y="649"/>
      <point x="314" y="642" type="curve" smooth="yes"/>
      <point x="314" y="633"/>
      <point x="302" y="626"/>
      <point x="278" y="622" type="curve" smooth="yes"/>
      <point x="230" y="613"/>
      <point x="210" y="595"/>
      <point x="210" y="550" type="curve" smooth="yes"/>
      <point x="210" y="98" type="line" smooth="yes"/>
      <point x="210" y="53"/>
      <point x="237" y="33"/>
      <point x="286" y="25" type="curve"/>
      <point x="310" y="20"/>
      <point x="322" y="14"/>
      <point x="322" y="7" type="curve" smooth="yes"/>
      <point x="322" y="-1"/>
      <point x="312" y="-5"/>
      <point x="293" y="-5" type="curve"/>
    </contour>
  </outline>
</glyph>
<glyph name="IJ" format="1">
  <advance width="669"/>
  <unicode hex="0132"/>
  <outline>
    <contour>
      <point x="530" y="650" type="line"/>
      <point x="624" y="653" type="line" smooth="yes"/>
      <point x="643" y="653"/>
      <point x="653" y="649"/>
      <point x="653" y="642" type="curve" smooth="yes"/>
      <point x="653" y="633"/>
      <point x="642" y="626"/>
      <point x="619" y="622" type="curve" smooth="yes"/>
      <point x="573" y="613"/>
      <point x="563" y="599"/>
      <point x="563" y="551" type="curve" smooth="yes"/>
      <point x="563" y="142" type="line" smooth="yes"/>
      <point x="563" y="41"/>
      <point x="557" y="-27"/>
      <point x="546" y="-62" type="curve" smooth="yes"/>
      <point x="533" y="-102"/>
      <point x="530" y="-105"/>
      <point x="510" y="-134" type="curve" smooth="yes"/>
      <point x="479" y="-178"/>
      <point x="438" y="-200"/>
      <point x="387" y="-200" type="curve" smooth="yes"/>
      <point x="356" y="-200"/>
      <point x="332" y="-196"/>
      <point x="313" y="-187" type="curve"/>
      <point x="294" y="-179"/>
      <point x="284" y="-169"/>
      <point x="284" y="-156" type="curve" smooth="yes"/>
      <point x="284" y="-132"/>
      <point x="303" y="-103"/>
      <point x="320" y="-103" type="curve" smooth="yes"/>
      <point x="342" y="-103"/>
      <point x="359" y="-112"/>
      <point x="371" y="-130" type="curve" smooth="yes"/>
      <point x="383" y="-149"/>
      <point x="398" y="-158"/>
      <point x="417" y="-158" type="curve" smooth="yes"/>
      <point x="461" y="-158"/>
      <point x="483" y="-105"/>
      <point x="483" y="0" type="curve" smooth="yes"/>
      <point x="483" y="551" type="line" smooth="yes"/>
      <point x="483" y="596"/>
      <point x="466" y="613"/>
      <point x="419" y="622" type="curve" smooth="yes"/>
      <point x="396" y="626"/>
      <point x="384" y="633"/>
      <point x="384" y="642" type="curve" smooth="yes"/>
      <point x="384" y="649"/>
      <point x="394" y="653"/>
      <point x="413" y="653" type="curve" smooth="yes"/>
    </contour>
    <contour>
      <point x="176" y="0" type="line"/>
      <point x="48" y="-5" type="line"/>
      <point x="29" y="-5"/>
      <point x="19" y="-1"/>
      <point x="19" y="7" type="curve" smooth="yes"/>
      <point x="19" y="14"/>
      <point x="31" y="20"/>
      <point x="56" y="25" type="curve" smooth="yes"/>
      <point x="104" y="33"/>
      <point x="130" y="53"/>
      <point x="130" y="98" type="curve" smooth="yes"/>
      <point x="130" y="550" type="line" smooth="yes"/>
      <point x="130" y="597"/>
      <point x="113" y="613"/>
      <point x="66" y="622" type="curve" smooth="yes"/>
      <point x="42" y="626"/>
      <point x="30" y="633"/>
      <point x="30" y="642" type="curve" smooth="yes"/>
      <point x="30" y="649"/>
      <point x="40" y="653"/>
      <point x="59" y="653" type="curve" smooth="yes"/>
      <point x="176" y="650" type="line"/>
      <point x="285" y="653" type="line" smooth="yes"/>
      <point x="304" y="653"/>
      <point x="314" y="649"/>
      <point x="314" y="642" type="curve" smooth="yes"/>
      <point x="314" y="633"/>
      <point x="302" y="626"/>
      <point x="278" y="622" type="curve" smooth="yes"/>
      <point x="230" y="613"/>
      <point x="210" y="595"/>
      <point x="210" y="550" type="curve" smooth="yes"/>
      <point x="210" y="98" type="line" smooth="yes"/>
      <point x="210" y="53"/>
      <point x="237" y="33"/>
      <point x="286" y="25" type="curve"/>
      <point x="310" y="20"/>
      <point x="322" y="14"/>
      <point x="322" y="7" type="curve" smooth="yes"/>
      <point x="322" y="-1"/>
      <point x="312" y="-5"/>
      <point x="293" y="-5" type="curve"/>
    </contour>
  </outline>
</glyph>
<glyph name="omacron" format="1">
  <advance width="495"/>
  <unicode hex="014D"/>
  <outline>
    <contour>
      <point x="353" y="555" type="line" smooth="yes"/>
      <point x="360" y="555"/>
      <point x="366" y="551"/>
      <point x="366" y="536" type="curve" smooth="yes"/>
      <point x="366" y="521"/>
      <point x="355" y="500"/>
      <point x="335" y="500" type="curve" smooth="yes"/>
      <point x="140" y="500" type="line" smooth="yes"/>
      <point x="133" y="500"/>
      <point x="126" y="505"/>
      <point x="126" y="516" type="curve" smooth="yes"/>
      <point x="126" y="527"/>
      <point x="134" y="555"/>
      <point x="150" y="555" type="curve" smooth="yes"/>
    </contour>
    <contour>
      <point x="157" y="383"/>
      <point x="117" y="325"/>
      <point x="117" y="210" type="curve" smooth="yes"/>
      <point x="117" y="107"/>
      <point x="178" y="16"/>
      <point x="255" y="16" type="curve" smooth="yes"/>
      <point x="355" y="16"/>
      <point x="378" y="84"/>
      <point x="378" y="187" type="curve" smooth="yes"/>
      <point x="378" y="290"/>
      <point x="318" y="383"/>
      <point x="237" y="383" type="curve" smooth="yes"/>
    </contour>
    <contour>
      <point x="35" y="302"/>
      <point x="135" y="414"/>
      <point x="252" y="414" type="curve" smooth="yes"/>
      <point x="369" y="414"/>
      <point x="460" y="324"/>
      <point x="460" y="207" type="curve" smooth="yes"/>
      <point x="460" y="90"/>
      <point x="377" y="-14"/>
      <point x="234" y="-14" type="curve" smooth="yes"/>
      <point x="121" y="-14"/>
      <point x="35" y="71"/>
      <point x="35" y="187" type="curve" smooth="yes"/>
    </contour>
  </outline>
</glyph>
<glyph name="ohungarumlaut" format="1">
  <advance width="495"/>
  <unicode hex="0151"/>
  <outline>
    <contour>
      <point x="432" y="614"/>
      <point x="354" y="520"/>
      <point x="320" y="484" type="curve" smooth="yes"/>
      <point x="303" y="465"/>
      <point x="291" y="456"/>
      <point x="285" y="456" type="curve" smooth="yes"/>
      <point x="278" y="456"/>
      <point x="275" y="462"/>
      <point x="275" y="473" type="curve" smooth="yes"/>
      <point x="275" y="484"/>
      <point x="302" y="537"/>
      <point x="356" y="631" type="curve" smooth="yes"/>
      <point x="363" y="643"/>
      <point x="372" y="649"/>
      <point x="383" y="649" type="curve" smooth="yes"/>
      <point x="416" y="649"/>
      <point x="432" y="641"/>
      <point x="432" y="626" type="curve" smooth="yes"/>
    </contour>
    <contour>
      <point x="308" y="614"/>
      <point x="230" y="520"/>
      <point x="196" y="484" type="curve" smooth="yes"/>
      <point x="179" y="465"/>
      <point x="167" y="456"/>
      <point x="161" y="456" type="curve" smooth="yes"/>
      <point x="154" y="456"/>
      <point x="151" y="462"/>
      <point x="151" y="473" type="curve" smooth="yes"/>
      <point x="151" y="484"/>
      <point x="178" y="537"/>
      <point x="232" y="631" type="curve" smooth="yes"/>
      <point x="239" y="643"/>
      <point x="248" y="649"/>
      <point x="259" y="649" type="curve" smooth="yes"/>
      <point x="292" y="649"/>
      <point x="308" y="641"/>
      <point x="308" y="626" type="curve" smooth="yes"/>
    </contour>
    <contour>
      <point x="157" y="383"/>
      <point x="117" y="325"/>
      <point x="117" y="210" type="curve" smooth="yes"/>
      <point x="117" y="107"/>
      <point x="178" y="16"/>
      <point x="255" y="16" type="curve" smooth="yes"/>
      <point x="355" y="16"/>
      <point x="378" y="84"/>
      <point x="378" y="187" type="curve" smooth="yes"/>
      <point x="378" y="290"/>
      <point x="318" y="383"/>
      <point x="237" y="383" type="curve" smooth="yes"/>
    </contour>
    <contour>
      <point x="35" y="302"/>
      <point x="135" y="414"/>
      <point x="252" y="414" type="curve" smooth="yes"/>
      <point x="369" y="414"/>
      <point x="460" y="324"/>
      <point x="460" y="207" type="curve" smooth="yes"/>
      <point x="460" y="90"/>
      <point x="377" y="-14"/>
      <point x="234" y="-14" type="curve" smooth="yes"/>
      <point x="121" y="-14"/>
      <point x="35" y="71"/>
      <point x="35" y="187" type="curve" smooth="yes"/>
    </contour>
  </outline>
</glyph>
<glyph name="sacute" format="1">
  <advance width="323"/>
  <unicode hex="015B"/>
  <outline>
    <contour>
      <point x="301" y="614"/>
      <point x="223" y="520"/>
      <point x="189" y="484" type="curve" smooth="yes"/>
      <point x="172" y="465"/>
      <point x="160" y="456"/>
      <point x="154" y="456" type="curve" smooth="yes"/>
      <point x="147" y="456"/>
      <point x="144" y="462"/>
      <point x="144" y="473" type="curve" smooth="yes"/>
      <point x="144" y="484"/>
      <point x="171" y="537"/>
      <point x="225" y="631" type="curve" smooth="yes"/>
      <point x="232" y="643"/>
      <point x="241" y="649"/>
      <point x="252" y="649" type="curve" smooth="yes"/>
      <point x="285" y="649"/>
      <point x="301" y="641"/>
      <point x="301" y="626" type="curve" smooth="yes"/>
    </contour>
    <contour>
      <point x="238" y="359"/>
      <point x="209" y="388"/>
      <point x="174" y="388" type="curve" smooth="yes"/>
      <point x="138" y="388"/>
      <point x="113" y="360"/>
      <point x="113" y="328" type="curve" smooth="yes"/>
      <point x="113" y="296"/>
      <point x="143" y="267"/>
      <point x="160" y="256" type="curve"/>
      <point x="168" y="250"/>
      <point x="181" y="242"/>
      <point x="198" y="231" type="curve" smooth="yes"/>
      <point x="232" y="210"/>
      <point x="246" y="203"/>
      <point x="273" y="165" type="curve" smooth="yes"/>
      <point x="286" y="146"/>
      <point x="293" y="126"/>
      <point x="293" y="106" type="curve" smooth="yes"/>
      <point x="293" y="26"/>
      <point x="245" y="-14"/>
      <point x="149" y="-14" type="curve" smooth="yes"/>
      <point x="100" y="-14"/>
      <point x="50" y="7"/>
      <point x="43" y="22" type="curve" smooth="yes"/>
      <point x="36" y="37"/>
      <point x="31" y="58"/>
      <point x="30" y="83" type="curve"/>
      <point x="30" y="89"/>
      <point x="35" y="92"/>
      <point x="46" y="92" type="curve" smooth="yes"/>
      <point x="56" y="92"/>
      <point x="61" y="90"/>
      <point x="62" y="85" type="curve" smooth="yes"/>
      <point x="69" y="50"/>
      <point x="114" y="13"/>
      <point x="158" y="13" type="curve" smooth="yes"/>
      <point x="201" y="13"/>
      <point x="225" y="42"/>
      <point x="225" y="79" type="curve" smooth="yes"/>
      <point x="225" y="116"/>
      <point x="203" y="136"/>
      <point x="147" y="176" type="curve" smooth="yes"/>
      <point x="90" y="216"/>
      <point x="53" y="249"/>
      <point x="53" y="304" type="curve" smooth="yes"/>
      <point x="53" y="359"/>
      <point x="99" y="414"/>
      <point x="179" y="414" type="curve" smooth="yes"/>
      <point x="219" y="414"/>
      <point x="247" y="406"/>
      <point x="262" y="391" type="curve"/>
      <point x="273" y="377"/>
      <point x="279" y="351"/>
      <point x="279" y="313" type="curve" smooth="yes"/>
      <point x="279" y="310"/>
      <point x="277" y="309"/>
      <point x="272" y="309" type="curve" smooth="yes"/>
      <point x="263" y="309"/>
      <point x="239" y="322"/>
      <point x="239" y="330" type="curve"/>
    </contour>
  </outline>
</glyph>
<glyph name="Uhungarumlaut" format="1">
  <advance width="738"/>
  <unicode hex="0170"/>
  <outline>
    <contour>
      <point x="441" y="700"/>
      <point x="435" y="697"/>
      <point x="431" y="697" type="curve" smooth="yes"/>
      <point x="427" y="697"/>
      <point x="425" y="699"/>
      <point x="425" y="704" type="curve" smooth="yes"/>
      <point x="425" y="713"/>
      <point x="452" y="758"/>
      <point x="507" y="837" type="curve" smooth="yes"/>
      <point x="513" y="846"/>
      <point x="521" y="850"/>
      <point x="532" y="850" type="curve" smooth="yes"/>
      <point x="553" y="850"/>
      <point x="592" y="839"/>
      <point x="592" y="828" type="curve" smooth="yes"/>
      <point x="592" y="823"/>
      <point x="588" y="816"/>
      <point x="579" y="808" type="curve" smooth="yes"/>
      <point x="549" y="783"/>
      <point x="506" y="749"/>
      <point x="449" y="706" type="curve" smooth="yes"/>
    </contour>
    <contour>
      <point x="309" y="700"/>
      <point x="303" y="697"/>
      <point x="299" y="697" type="curve" smooth="yes"/>
      <point x="295" y="697"/>
      <point x="293" y="699"/>
      <point x="293" y="704" type="curve" smooth="yes"/>
      <point x="293" y="713"/>
      <point x="320" y="758"/>
      <point x="375" y="837" type="curve" smooth="yes"/>
      <point x="381" y="846"/>
      <point x="389" y="850"/>
      <point x="400" y="850" type="curve" smooth="yes"/>
      <point x="421" y="850"/>
      <point x="460" y="839"/>
      <point x="460" y="828" type="curve" smooth="yes"/>
      <point x="460" y="823"/>
      <point x="456" y="816"/>
      <point x="447" y="808" type="curve" smooth="yes"/>
      <point x="417" y="783"/>
      <point x="374" y="749"/>
      <point x="317" y="706" type="curve" smooth="yes"/>
    </contour>
    <contour>
      <point x="618" y="650" type="line"/>
      <point x="699" y="653" type="line"/>
      <point x="718" y="653"/>
      <point x="728" y="649"/>
      <point x="728" y="642" type="curve" smooth="yes"/>
      <point x="728" y="633"/>
      <point x="717" y="627"/>
      <point x="695" y="622" type="curve" smooth="yes"/>
      <point x="664" y="616"/>
      <point x="647" y="591"/>
      <point x="645" y="547" type="curve"/>
      <point x="644" y="540"/>
      <point x="641" y="441"/>
      <point x="635" y="250" type="curve" smooth="yes"/>
      <point x="630" y="95"/>
      <point x="524" y="-14"/>
      <point x="380" y="-14" type="curve" smooth="yes"/>
      <point x="191" y="-14"/>
      <point x="103" y="84"/>
      <point x="103" y="281" type="curve" smooth="yes"/>
      <point x="103" y="547" type="line" smooth="yes"/>
      <point x="103" y="587"/>
      <point x="88" y="611"/>
      <point x="57" y="620" type="curve" smooth="yes"/>
      <point x="35" y="626"/>
      <point x="24" y="633"/>
      <point x="24" y="642" type="curve" smooth="yes"/>
      <point x="24" y="649"/>
      <point x="34" y="653"/>
      <point x="53" y="653" type="curve" smooth="yes"/>
      <point x="149" y="650" type="line"/>
      <point x="229" y="652" type="line" smooth="yes"/>
      <point x="248" y="652"/>
      <point x="258" y="648"/>
      <point x="258" y="641" type="curve" smooth="yes"/>
      <point x="258" y="635"/>
      <point x="247" y="628"/>
      <point x="225" y="621" type="curve"/>
      <point x="206" y="616"/>
      <point x="183" y="585"/>
      <point x="183" y="549" type="curve" smooth="yes"/>
      <point x="183" y="253" type="line" smooth="yes"/>
      <point x="183" y="133"/>
      <point x="281" y="36"/>
      <point x="404" y="36" type="curve" smooth="yes"/>
      <point x="527" y="36"/>
      <point x="592" y="135"/>
      <point x="592" y="296" type="curve" smooth="yes"/>
      <point x="592" y="337"/>
      <point x="591" y="408"/>
      <point x="588" y="511" type="curve" smooth="yes"/>
      <point x="587" y="576"/>
      <point x="573" y="613"/>
      <point x="547" y="620" type="curve" smooth="yes"/>
      <point x="525" y="626"/>
      <point x="514" y="633"/>
      <point x="514" y="640" type="curve" smooth="yes"/>
      <point x="514" y="647"/>
      <point x="524" y="651"/>
      <point x="543" y="651" type="curve" smooth="yes"/>
    </contour>
  </outline>
</glyph>
<glyph name="knCandrabindu" format="1">
  <advance width="3"/>
  <unicode hex="0C81"/>
  <outline>
    <contour>
      <point x="93" y="611"/>
      <point x="152" y="684"/>
      <point x="153" y="777" type="curve"/>
      <point x="123" y="777" type="line"/>
      <point x="113" y="717"/>
      <point x="75" y="679"/>
      <point x="1" y="679" type="curve" smooth="yes"/>
      <point x="-72" y="679"/>
      <point x="-109" y="717"/>
      <point x="-120" y="777" type="curve"/>
      <point x="-150" y="777" type="line"/>
      <point x="-147" y="684"/>
      <point x="-89" y="611"/>
      <point x="1" y="611" type="curve" smooth="yes"/>
    </contour>
    <contour>
      <point x="32" y="781"/>
      <point x="55" y="804"/>
      <point x="55" y="836" type="curve" smooth="yes"/>
      <point x="55" y="870"/>
      <point x="32" y="892"/>
      <point x="0" y="892" type="curve" smooth="yes"/>
      <point x="-33" y="892"/>
      <point x="-57" y="870"/>
      <point x="-57" y="836" type="curve" smooth="yes"/>
      <point x="-57" y="804"/>
      <point x="-33" y="781"/>
      <point x="0" y="781" type="curve" smooth="yes"/>
    </contour>
  </outline>
</glyph>
<glyph name="knAvagraha" format="1">
  <advance width="406"/>
  <unicode hex="0CBD"/>
  <outline>
    <contour>
      <point x="289" y="-14"/>
      <point x="361" y="40"/>
      <point x="361" y="123" type="curve" smooth="yes"/>
      <point x="361" y="284"/>
      <point x="90" y="288"/>
      <point x="90" y="384" type="curve" smooth="yes"/>
      <point x="90" y="411"/>
      <point x="112" y="437"/>
      <point x="164" y="437" type="curve" smooth="yes"/>
      <point x="356" y="437" type="line"/>
      <point x="356" y="519" type="line"/>
      <point x="161" y="519" type="line" smooth="yes"/>
      <point x="83" y="519"/>
      <point x="38" y="467"/>
      <point x="38" y="404" type="curve" smooth="yes"/>
      <point x="38" y="380"/>
      <point x="44" y="354"/>
      <point x="63" y="331" type="curve" smooth="yes"/>
      <point x="126" y="258"/>
      <point x="311" y="229"/>
      <point x="311" y="150" type="curve" smooth="yes"/>
      <point x="311" y="116"/>
      <point x="278" y="93"/>
      <point x="215" y="93" type="curve" smooth="yes"/>
      <point x="138" y="93"/>
      <point x="85" y="126"/>
      <point x="59" y="178" type="curve"/>
      <point x="35" y="154" type="line"/>
      <point x="47" y="45"/>
      <point x="115" y="-14"/>
      <point x="206" y="-14" type="curve" smooth="yes"/>
    </contour>
  </outline>
</glyph>
<glyph name="endash" format="1">
  <advance width="550"/>
  <unicode hex="2013"/>
  <outline>
    <contour>
      <point x="469" y="185" type="line" smooth="yes"/>
      <point x="485" y="185"/>
      <point x="500" y="209"/>
      <point x="500" y="222" type="curve" smooth="yes"/>
      <point x="500" y="234"/>
      <point x="494" y="239"/>
      <point x="487" y="239" type="curve" smooth="yes"/>
      <point x="74" y="239" type="line" smooth="yes"/>
      <point x="58" y="239"/>
      <point x="50" y="212"/>
      <point x="50" y="201" type="curve" smooth="yes"/>
      <point x="50" y="189"/>
      <point x="57" y="185"/>
      <point x="64" y="185" type="curve" smooth="yes"/>
    </contour>
  </outline>
</glyph>
<glyph name="quoteleft" format="1">
  <advance width="240"/>
  <unicode hex="2018"/>
  <outline>
    <contour>
      <point x="155" y="426"/>
      <point x="178" y="446"/>
      <point x="178" y="471" type="curve" smooth="yes"/>
      <point x="178" y="495"/>
      <point x="159" y="512"/>
      <point x="135" y="514" type="curve" smooth="yes"/>
      <point x="110" y="516"/>
      <point x="92" y="541"/>
      <point x="92" y="558" type="curve" smooth="yes"/>
      <point x="92" y="622"/>
      <point x="136" y="656"/>
      <point x="188" y="667" type="curve" smooth="yes"/>
      <point x="197" y="669"/>
      <point x="202" y="673"/>
      <point x="202" y="679" type="curve" smooth="yes"/>
      <point x="202" y="686"/>
      <point x="196" y="690"/>
      <point x="184" y="690" type="curve" smooth="yes"/>
      <point x="182" y="690" type="line"/>
      <point x="122" y="687"/>
      <point x="40" y="615"/>
      <point x="40" y="523" type="curve" smooth="yes"/>
      <point x="40" y="467"/>
      <point x="77" y="426"/>
      <point x="116" y="426" type="curve" smooth="yes"/>
    </contour>
  </outline>
</glyph>
<glyph name="guilsinglright" format="1">
  <advance width="464"/>
  <unicode hex="203A"/>
  <outline>
    <contour>
      <point x="113" y="19" type="line"/>
      <point x="120" y="20"/>
      <point x="129" y="26"/>
      <point x="141" y="37" type="curve" smooth="yes"/>
      <point x="208" y="102"/>
      <point x="276" y="150"/>
      <point x="346" y="182" type="curve"/>
      <point x="355" y="187"/>
      <point x="364" y="202"/>
      <point x="364" y="210" type="curve" smooth="yes"/>
      <point x="364" y="214"/>
      <point x="363" y="217"/>
      <point x="361" y="218" type="curve"/>
      <point x="264" y="276"/>
      <point x="188" y="331"/>
      <point x="135" y="382" type="curve" smooth="yes"/>
      <point x="123" y="393"/>
      <point x="114" y="399"/>
      <point x="107" y="400" type="curve"/>
      <point x="105" y="400" type="line" smooth="yes"/>
      <point x="102" y="400"/>
      <point x="100" y="397"/>
      <point x="100" y="392" type="curve" smooth="yes"/>
      <point x="100" y="379"/>
      <point x="120" y="349"/>
      <point x="161" y="304" type="curve" smooth="yes"/>
      <point x="201" y="259"/>
      <point x="221" y="246"/>
      <point x="245" y="227" type="curve" smooth="yes"/>
      <point x="257" y="218"/>
      <point x="263" y="212"/>
      <point x="263" y="210" type="curve" smooth="yes"/>
      <point x="263" y="208"/>
      <point x="261" y="206"/>
      <point x="257" y="203" type="curve" smooth="yes"/>
      <point x="196" y="156"/>
      <point x="146" y="102"/>
      <point x="105" y="40" type="curve" smooth="yes"/>
      <point x="103" y="37"/>
      <point x="102" y="34"/>
      <point x="102" y="30" type="curve" smooth="yes"/>
      <point x="102" y="23"/>
      <point x="105" y="19"/>
      <point x="111" y="19" type="curve" smooth="yes"/>
    </contour>
  </outline>
</glyph>
<glyph name="fraction" format="1">
  <advance width="50"/>
  <unicode hex="2044"/>
  <outline>
    <contour>
      <point x="218" y="648" type="line" smooth="yes"/>
      <point x="225" y="659"/>
      <point x="238" y="665"/>
      <point x="257" y="665" type="curve" smooth="yes"/>
      <point x="264" y="665"/>
      <point x="271" y="658"/>
      <point x="271" y="653" type="curve" smooth="yes"/>
      <point x="271" y="650"/>
      <point x="271" y="649"/>
      <point x="270" y="648" type="curve"/>
      <point x="-168" y="-47" type="line" smooth="yes"/>
      <point x="-174" y="-57"/>
      <point x="-186" y="-62"/>
      <point x="-204" y="-62" type="curve" smooth="yes"/>
      <point x="-212" y="-62"/>
      <point x="-221" y="-55"/>
      <point x="-221" y="-51" type="curve" smooth="yes"/>
      <point x="-221" y="-49"/>
      <point x="-221" y="-48"/>
      <point x="-220" y="-47" type="curve"/>
    </contour>
  </outline>
</glyph>
<glyph name="lessequal" format="1">
  <advance width="590"/>
  <unicode hex="2264"/>
  <outline>
    <contour>
      <point x="531" y="81"/>
      <point x="537" y="88"/>
      <point x="537" y="98" type="curve" smooth="yes"/>
      <point x="537" y="108"/>
      <point x="529" y="135"/>
      <point x="513" y="142" type="curve" smooth="yes"/>
      <point x="133" y="296" type="line"/>
      <point x="130" y="298"/>
      <point x="130" y="300"/>
      <point x="132" y="301" type="curve"/>
      <point x="505" y="455" type="line" smooth="yes"/>
      <point x="525" y="463"/>
      <point x="536" y="490"/>
      <point x="536" y="505" type="curve" smooth="yes"/>
      <point x="536" y="512"/>
      <point x="533" y="516"/>
      <point x="526" y="516" type="curve"/>
      <point x="525" y="515"/>
      <point x="524" y="515"/>
      <point x="523" y="515" type="curve"/>
      <point x="86" y="335" type="line" smooth="yes"/>
      <point x="69" y="328"/>
      <point x="53" y="300"/>
      <point x="53" y="292" type="curve" smooth="yes"/>
      <point x="53" y="283"/>
      <point x="75" y="270"/>
      <point x="94" y="262" type="curve" smooth="yes"/>
      <point x="523" y="82" type="line"/>
      <point x="525" y="82" type="line"/>
      <point x="526" y="81" type="line"/>
    </contour>
    <contour>
      <point x="509" y="0" type="line" smooth="yes"/>
      <point x="528" y="0"/>
      <point x="540" y="23"/>
      <point x="540" y="36" type="curve" smooth="yes"/>
      <point x="540" y="49"/>
      <point x="534" y="54"/>
      <point x="527" y="54" type="curve" smooth="yes"/>
      <point x="74" y="54" type="line" smooth="yes"/>
      <point x="58" y="54"/>
      <point x="50" y="27"/>
      <point x="50" y="16" type="curve" smooth="yes"/>
      <point x="50" y="4"/>
      <point x="57" y="0"/>
      <point x="64" y="0" type="curve" smooth="yes"/>
    </contour>
  </outline>
</glyph>
<glyph name="uni24A2" format="1">
  <advance width="1080"/>
  <unicode hex="24A2"/>
  <outline>
    <contour>
      <point x="614" y="-290"/>
      <point x="733" y="-184"/>
      <point x="733" y="-77" type="curve" smooth="yes"/>
      <point x="733" y="-20"/>
      <point x="693" y="-7"/>
      <point x="663" y="6" type="curve" smooth="yes"/>
      <point x="648" y="13"/>
      <point x="597" y="20"/>
      <point x="510" y="28" type="curve" smooth="yes"/>
      <point x="446" y="34"/>
      <point x="414" y="48"/>
      <point x="414" y="69" type="curve" smooth="yes"/>
      <point x="414" y="79"/>
      <point x="429" y="95"/>
      <point x="458" y="118" type="curve"/>
      <point x="473" y="110"/>
      <point x="491" y="106"/>
      <point x="512" y="106" type="curve" smooth="yes"/>
      <point x="608" y="106"/>
      <point x="680" y="195"/>
      <point x="680" y="295" type="curve" smooth="yes"/>
      <point x="680" y="318"/>
      <point x="681" y="334"/>
      <point x="684" y="341" type="curve"/>
      <point x="687" y="342"/>
      <point x="689" y="343"/>
      <point x="691" y="344" type="curve" smooth="yes"/>
      <point x="699" y="347" type="line" smooth="yes"/>
      <point x="702" y="348"/>
      <point x="716" y="349"/>
      <point x="741" y="349" type="curve" smooth="yes"/>
      <point x="747" y="349"/>
      <point x="750" y="355"/>
      <point x="750" y="367" type="curve" smooth="yes"/>
      <point x="750" y="384"/>
      <point x="742" y="386"/>
      <point x="732" y="386" type="curve" smooth="yes"/>
      <point x="728" y="386"/>
      <point x="724" y="386"/>
      <point x="720" y="386" type="curve" smooth="yes"/>
      <point x="688" y="385" type="line" smooth="yes"/>
      <point x="663" y="385"/>
      <point x="629" y="392"/>
      <point x="587" y="405" type="curve" smooth="yes"/>
      <point x="564" y="412"/>
      <point x="545" y="416"/>
      <point x="528" y="416" type="curve" smooth="yes"/>
      <point x="435" y="416"/>
      <point x="350" y="351"/>
      <point x="350" y="264" type="curve" smooth="yes"/>
      <point x="350" y="221"/>
      <point x="366" y="184"/>
      <point x="399" y="153" type="curve" smooth="yes"/>
      <point x="415" y="138"/>
      <point x="428" y="129"/>
      <point x="437" y="127" type="curve"/>
      <point x="428" y="115"/>
      <point x="415" y="104"/>
      <point x="397" y="93" type="curve"/>
      <point x="388" y="88"/>
      <point x="382" y="84"/>
      <point x="378" y="81" type="curve" smooth="yes"/>
      <point x="363" y="69"/>
      <point x="355" y="57"/>
      <point x="355" y="44" type="curve" smooth="yes"/>
      <point x="355" y="3"/>
      <point x="400" y="-22"/>
      <point x="445" y="-31" type="curve"/>
      <point x="435" y="-46"/>
      <point x="418" y="-62"/>
      <point x="394" y="-77" type="curve" smooth="yes"/>
      <point x="345" y="-108"/>
      <point x="326" y="-135"/>
      <point x="326" y="-176" type="curve" smooth="yes"/>
      <point x="326" y="-256"/>
      <point x="410" y="-290"/>
      <point x="512" y="-290" type="curve" smooth="yes"/>
    </contour>
    <contour>
      <point x="446" y="-250"/>
      <point x="397" y="-202"/>
      <point x="397" y="-134" type="curve" smooth="yes"/>
      <point x="397" y="-117"/>
      <point x="405" y="-99"/>
      <point x="421" y="-80" type="curve"/>
      <point x="446" y="-55"/>
      <point x="463" y="-39"/>
      <point x="471" y="-34" type="curve"/>
      <point x="494" y="-34" type="line"/>
      <point x="535" y="-36"/>
      <point x="566" y="-39"/>
      <point x="589" y="-43" type="curve" smooth="yes"/>
      <point x="634" y="-52"/>
      <point x="672" y="-76"/>
      <point x="672" y="-109" type="curve" smooth="yes"/>
      <point x="672" y="-190"/>
      <point x="604" y="-250"/>
      <point x="525" y="-250" type="curve" smooth="yes"/>
    </contour>
    <contour>
      <point x="252" y="-214"/>
      <point x="264" y="-205"/>
      <point x="264" y="-192" type="curve" smooth="yes"/>
      <point x="264" y="-190"/>
      <point x="259" y="-184"/>
      <point x="248" y="-173" type="curve" smooth="yes"/>
      <point x="175" y="-100"/>
      <point x="100" y="117"/>
      <point x="100" y="278" type="curve" smooth="yes"/>
      <point x="100" y="439"/>
      <point x="171" y="589"/>
      <point x="252" y="670" type="curve" smooth="yes"/>
      <point x="261" y="679"/>
      <point x="265" y="685"/>
      <point x="265" y="689" type="curve" smooth="yes"/>
      <point x="265" y="697"/>
      <point x="253" y="705"/>
      <point x="238" y="705" type="curve" smooth="yes"/>
      <point x="231" y="705"/>
      <point x="223" y="701"/>
      <point x="216" y="694" type="curve" smooth="yes"/>
      <point x="132" y="610"/>
      <point x="40" y="425"/>
      <point x="40" y="268" type="curve" smooth="yes"/>
      <point x="40" y="111"/>
      <point x="141" y="-128"/>
      <point x="220" y="-207" type="curve" smooth="yes"/>
      <point x="225" y="-212"/>
      <point x="231" y="-214"/>
      <point x="238" y="-214" type="curve" smooth="yes"/>
    </contour>
    <contour>
      <point x="468" y="141"/>
      <point x="428" y="206"/>
      <point x="428" y="266" type="curve" smooth="yes"/>
      <point x="428" y="326"/>
      <point x="463" y="386"/>
      <point x="516" y="386" type="curve" smooth="yes"/>
      <point x="569" y="386"/>
      <point x="610" y="328"/>
      <point x="610" y="264" type="curve" smooth="yes"/>
      <point x="610" y="199"/>
      <point x="572" y="141"/>
      <point x="520" y="141" type="curve" smooth="yes"/>
    </contour>
    <contour>
      <point x="837" y="-213"/>
      <point x="843" y="-211"/>
      <point x="847" y="-207" type="curve" smooth="yes"/>
      <point x="926" y="-128"/>
      <point x="1030" y="123"/>
      <point x="1030" y="280" type="curve" smooth="yes"/>
      <point x="1030" y="436"/>
      <point x="940" y="609"/>
      <point x="855" y="694" type="curve" smooth="yes"/>
      <point x="848" y="701"/>
      <point x="838" y="704"/>
      <point x="825" y="704" type="curve" smooth="yes"/>
      <point x="811" y="704"/>
      <point x="804" y="700"/>
      <point x="804" y="691" type="curve" smooth="yes"/>
      <point x="804" y="688"/>
      <point x="807" y="684"/>
      <point x="812" y="679" type="curve" smooth="yes"/>
      <point x="892" y="599"/>
      <point x="970" y="425"/>
      <point x="970" y="266" type="curve" smooth="yes"/>
      <point x="970" y="106"/>
      <point x="886" y="-105"/>
      <point x="810" y="-181" type="curve" smooth="yes"/>
      <point x="803" y="-188"/>
      <point x="800" y="-193"/>
      <point x="800" y="-196" type="curve" smooth="yes"/>
      <point x="800" y="-204"/>
      <point x="815" y="-213"/>
      <point x="830" y="-213" type="curve" smooth="yes"/>
    </contour>
  </outline>
</glyph>
<glyph name="uni24A6" format="1">
  <advance width="1111"/>
  <unicode hex="24A6"/>
  <outline>
    <contour>
      <point x="787" y="-5"/>
      <point x="794" y="-2"/>
      <point x="794" y="5" type="curve" smooth="yes"/>
      <point x="794" y="11"/>
      <point x="786" y="17"/>
      <point x="771" y="22" type="curve"/>
      <point x="740" y="31"/>
      <point x="713" y="47"/>
      <point x="689" y="70" type="curve"/>
      <point x="665" y="91"/>
      <point x="590" y="173"/>
      <point x="542" y="230" type="curve"/>
      <point x="537" y="235"/>
      <point x="538" y="241"/>
      <point x="545" y="247" type="curve" smooth="yes"/>
      <point x="615" y="308"/>
      <point x="661" y="346"/>
      <point x="682" y="359" type="curve" smooth="yes"/>
      <point x="703" y="372"/>
      <point x="724" y="380"/>
      <point x="743" y="384" type="curve"/>
      <point x="752" y="387"/>
      <point x="763" y="397"/>
      <point x="763" y="406" type="curve" smooth="yes"/>
      <point x="763" y="410"/>
      <point x="760" y="412"/>
      <point x="755" y="412" type="curve" smooth="yes"/>
      <point x="753" y="412"/>
      <point x="740" y="410"/>
      <point x="716" y="406" type="curve" smooth="yes"/>
      <point x="692" y="402"/>
      <point x="673" y="400"/>
      <point x="659" y="400" type="curve" smooth="yes"/>
      <point x="610" y="400" type="line" smooth="yes"/>
      <point x="595" y="400"/>
      <point x="588" y="395"/>
      <point x="588" y="386" type="curve" smooth="yes"/>
      <point x="588" y="383"/>
      <point x="592" y="381"/>
      <point x="600" y="378" type="curve"/>
      <point x="617" y="374"/>
      <point x="626" y="368"/>
      <point x="626" y="361" type="curve" smooth="yes"/>
      <point x="626" y="360"/>
      <point x="626" y="359"/>
      <point x="625" y="358" type="curve"/>
      <point x="609" y="335"/>
      <point x="571" y="298"/>
      <point x="511" y="245" type="curve" smooth="yes"/>
      <point x="496" y="232"/>
      <point x="483" y="224"/>
      <point x="474" y="224" type="curve" smooth="yes"/>
      <point x="471" y="224"/>
      <point x="470" y="226"/>
      <point x="470" y="231" type="curve" smooth="yes"/>
      <point x="470" y="562" type="line" smooth="yes"/>
      <point x="470" y="601"/>
      <point x="472" y="639"/>
      <point x="477" y="676" type="curve"/>
      <point x="478" y="687"/>
      <point x="479" y="694"/>
      <point x="479" y="699" type="curve" smooth="yes"/>
      <point x="479" y="703"/>
      <point x="477" y="705"/>
      <point x="473" y="705" type="curve"/>
      <point x="472" y="704" type="line"/>
      <point x="471" y="704" type="line"/>
      <point x="412" y="682"/>
      <point x="373" y="669"/>
      <point x="353" y="664" type="curve"/>
      <point x="348" y="663"/>
      <point x="346" y="659"/>
      <point x="346" y="652" type="curve" smooth="yes"/>
      <point x="346" y="645"/>
      <point x="349" y="640"/>
      <point x="354" y="639" type="curve" smooth="yes"/>
      <point x="387" y="632"/>
      <point x="400" y="613"/>
      <point x="400" y="566" type="curve" smooth="yes"/>
      <point x="400" y="65" type="line" smooth="yes"/>
      <point x="400" y="34"/>
      <point x="376" y="30"/>
      <point x="352" y="22" type="curve" smooth="yes"/>
      <point x="340" y="18"/>
      <point x="334" y="13"/>
      <point x="334" y="7" type="curve" smooth="yes"/>
      <point x="334" y="0"/>
      <point x="342" y="-3"/>
      <point x="357" y="-3" type="curve"/>
      <point x="409" y="0"/>
      <point x="435" y="2"/>
      <point x="435" y="2" type="curve"/>
      <point x="482" y="-1"/>
      <point x="505" y="-3"/>
      <point x="505" y="-3" type="curve" smooth="yes"/>
      <point x="520" y="-3"/>
      <point x="528" y="0"/>
      <point x="528" y="7" type="curve" smooth="yes"/>
      <point x="528" y="13"/>
      <point x="520" y="19"/>
      <point x="505" y="24" type="curve"/>
      <point x="473" y="33"/>
      <point x="468" y="52"/>
      <point x="468" y="83" type="curve" smooth="yes"/>
      <point x="468" y="98"/>
      <point x="469" y="115"/>
      <point x="469" y="134" type="curve" smooth="yes"/>
      <point x="469" y="165"/>
      <point x="469" y="184"/>
      <point x="470" y="193" type="curve"/>
      <point x="470" y="203"/>
      <point x="471" y="207"/>
      <point x="476" y="207" type="curve" smooth="yes"/>
      <point x="478" y="207"/>
      <point x="479" y="206"/>
      <point x="480" y="205" type="curve"/>
      <point x="606" y="60" type="line" smooth="yes"/>
      <point x="611" y="54"/>
      <point x="613" y="49"/>
      <point x="613" y="46" type="curve" smooth="yes"/>
      <point x="613" y="39"/>
      <point x="606" y="33"/>
      <point x="591" y="28" type="curve" smooth="yes"/>
      <point x="576" y="23"/>
      <point x="569" y="16"/>
      <point x="569" y="9" type="curve" smooth="yes"/>
      <point x="569" y="3"/>
      <point x="577" y="0"/>
      <point x="592" y="0" type="curve" smooth="yes"/>
      <point x="774" y="-5" type="line" smooth="yes"/>
    </contour>
    <contour>
      <point x="252" y="-214"/>
      <point x="264" y="-205"/>
      <point x="264" y="-192" type="curve" smooth="yes"/>
      <point x="264" y="-190"/>
      <point x="259" y="-184"/>
      <point x="248" y="-173" type="curve" smooth="yes"/>
      <point x="175" y="-100"/>
      <point x="100" y="117"/>
      <point x="100" y="278" type="curve" smooth="yes"/>
      <point x="100" y="439"/>
      <point x="171" y="589"/>
      <point x="252" y="670" type="curve" smooth="yes"/>
      <point x="261" y="679"/>
      <point x="265" y="685"/>
      <point x="265" y="689" type="curve" smooth="yes"/>
      <point x="265" y="697"/>
      <point x="253" y="705"/>
      <point x="238" y="705" type="curve" smooth="yes"/>
      <point x="231" y="705"/>
      <point x="223" y="701"/>
      <point x="216" y="694" type="curve" smooth="yes"/>
      <point x="132" y="610"/>
      <point x="40" y="425"/>
      <point x="40" y="268" type="curve" smooth="yes"/>
      <point x="40" y="111"/>
      <point x="141" y="-128"/>
      <point x="220" y="-207" type="curve" smooth="yes"/>
      <point x="225" y="-212"/>
      <point x="231" y="-214"/>
      <point x="238" y="-214" type="curve" smooth="yes"/>
    </contour>
    <contour>
      <point x="868" y="-213"/>
      <point x="874" y="-211"/>
      <point x="878" y="-207" type="curve" smooth="yes"/>
      <point x="957" y="-128"/>
      <point x="1061" y="123"/>
      <point x="1061" y="280" type="curve" smooth="yes"/>
      <point x="1061" y="436"/>
      <point x="971" y="609"/>
      <point x="886" y="694" type="curve" smooth="yes"/>
      <point x="879" y="701"/>
      <point x="869" y="704"/>
      <point x="856" y="704" type="curve" smooth="yes"/>
      <point x="842" y="704"/>
      <point x="835" y="700"/>
      <point x="835" y="691" type="curve" smooth="yes"/>
      <point x="835" y="688"/>
      <point x="838" y="684"/>
      <point x="843" y="679" type="curve" smooth="yes"/>
      <point x="923" y="599"/>
      <point x="1001" y="425"/>
      <point x="1001" y="266" type="curve" smooth="yes"/>
      <point x="1001" y="106"/>
      <point x="917" y="-105"/>
      <point x="841" y="-181" type="curve" smooth="yes"/>
      <point x="834" y="-188"/>
      <point x="831" y="-193"/>
      <point x="831" y="-196" type="curve" smooth="yes"/>
      <point x="831" y="-204"/>
      <point x="846" y="-213"/>
      <point x="861" y="-213" type="curve" smooth="yes"/>
    </contour>
  </outline>
</glyph>
<glyph name="uni24A9" format="1">
  <advance width="1124"/>
  <unicode hex="24A9"/>
  <outline>
    <contour>
      <point x="881" y="-213"/>
      <point x="887" y="-211"/>
      <point x="891" y="-207" type="curve" smooth="yes"/>
      <point x="970" y="-128"/>
      <point x="1074" y="123"/>
      <point x="1074" y="280" type="curve" smooth="yes"/>
      <point x="1074" y="436"/>
      <point x="984" y="609"/>
      <point x="899" y="694" type="curve" smooth="yes"/>
      <point x="892" y="701"/>
      <point x="882" y="704"/>
      <point x="869" y="704" type="curve" smooth="yes"/>
      <point x="855" y="704"/>
      <point x="848" y="700"/>
      <point x="848" y="691" type="curve" smooth="yes"/>
      <point x="848" y="688"/>
      <point x="851" y="684"/>
      <point x="856" y="679" type="curve" smooth="yes"/>
      <point x="936" y="599"/>
      <point x="1014" y="425"/>
      <point x="1014" y="266" type="curve" smooth="yes"/>
      <point x="1014" y="106"/>
      <point x="930" y="-105"/>
      <point x="854" y="-181" type="curve" smooth="yes"/>
      <point x="847" y="-188"/>
      <point x="844" y="-193"/>
      <point x="844" y="-196" type="curve" smooth="yes"/>
      <point x="844" y="-204"/>
      <point x="859" y="-213"/>
      <point x="874" y="-213" type="curve" smooth="yes"/>
    </contour>
    <contour>
      <point x="252" y="-214"/>
      <point x="264" y="-205"/>
      <point x="264" y="-192" type="curve" smooth="yes"/>
      <point x="264" y="-190"/>
      <point x="259" y="-184"/>
      <point x="248" y="-173" type="curve" smooth="yes"/>
      <point x="175" y="-100"/>
      <point x="100" y="117"/>
      <point x="100" y="278" type="curve" smooth="yes"/>
      <point x="100" y="439"/>
      <point x="171" y="589"/>
      <point x="252" y="670" type="curve" smooth="yes"/>
      <point x="261" y="679"/>
      <point x="265" y="685"/>
      <point x="265" y="689" type="curve" smooth="yes"/>
      <point x="265" y="697"/>
      <point x="253" y="705"/>
      <point x="238" y="705" type="curve" smooth="yes"/>
      <point x="231" y="705"/>
      <point x="223" y="701"/>
      <point x="216" y="694" type="curve" smooth="yes"/>
      <point x="132" y="610"/>
      <point x="40" y="425"/>
      <point x="40" y="268" type="curve" smooth="yes"/>
      <point x="40" y="111"/>
      <point x="141" y="-128"/>
      <point x="220" y="-207" type="curve" smooth="yes"/>
      <point x="225" y="-212"/>
      <point x="231" y="-214"/>
      <point x="238" y="-214" type="curve" smooth="yes"/>
    </contour>
    <contour>
      <point x="440" y="2" type="line"/>
      <point x="521" y="-3" type="line"/>
      <point x="534" y="-3"/>
      <point x="541" y="0"/>
      <point x="541" y="7" type="curve" smooth="yes"/>
      <point x="541" y="13"/>
      <point x="534" y="18"/>
      <point x="521" y="23" type="curve"/>
      <point x="493" y="32"/>
      <point x="475" y="35"/>
      <point x="475" y="62" type="curve" smooth="yes"/>
      <point x="475" y="268" type="line" smooth="yes"/>
      <point x="475" y="341"/>
      <point x="521" y="365"/>
      <point x="586" y="365" type="curve" smooth="yes"/>
      <point x="650" y="365"/>
      <point x="684" y="329"/>
      <point x="684" y="272" type="curve" smooth="yes"/>
      <point x="684" y="62" type="line" smooth="yes"/>
      <point x="684" y="59"/>
      <point x="684" y="55"/>
      <point x="683" y="52" type="curve"/>
      <point x="680" y="41"/>
      <point x="667" y="32"/>
      <point x="645" y="25" type="curve"/>
      <point x="643" y="24"/>
      <point x="642" y="24"/>
      <point x="641" y="24" type="curve"/>
      <point x="626" y="19"/>
      <point x="618" y="13"/>
      <point x="618" y="7" type="curve" smooth="yes"/>
      <point x="618" y="0"/>
      <point x="625" y="-3"/>
      <point x="638" y="-3" type="curve"/>
      <point x="720" y="2" type="line"/>
      <point x="800" y="-3" type="line"/>
      <point x="813" y="-3"/>
      <point x="820" y="0"/>
      <point x="820" y="7" type="curve" smooth="yes"/>
      <point x="820" y="13"/>
      <point x="813" y="18"/>
      <point x="800" y="23" type="curve"/>
      <point x="772" y="32"/>
      <point x="754" y="35"/>
      <point x="754" y="62" type="curve" smooth="yes"/>
      <point x="754" y="275" type="line" smooth="yes"/>
      <point x="754" y="354"/>
      <point x="704" y="414"/>
      <point x="644" y="414" type="curve" smooth="yes"/>
      <point x="584" y="414"/>
      <point x="513" y="379"/>
      <point x="476" y="348" type="curve"/>
      <point x="475" y="349"/>
      <point x="475" y="351"/>
      <point x="475" y="356" type="curve"/>
      <point x="482" y="421" type="line"/>
      <point x="480" y="427"/>
      <point x="478" y="430"/>
      <point x="477" y="430" type="curve" smooth="yes"/>
      <point x="475" y="430"/>
      <point x="474" y="430"/>
      <point x="473" y="429" type="curve"/>
      <point x="434" y="400"/>
      <point x="398" y="382"/>
      <point x="363" y="374" type="curve" smooth="yes"/>
      <point x="358" y="373"/>
      <point x="356" y="369"/>
      <point x="356" y="362" type="curve" smooth="yes"/>
      <point x="356" y="355"/>
      <point x="359" y="350"/>
      <point x="364" y="349" type="curve" smooth="yes"/>
      <point x="391" y="344"/>
      <point x="405" y="320"/>
      <point x="405" y="277" type="curve" smooth="yes"/>
      <point x="405" y="62" type="line" smooth="yes"/>
      <point x="405" y="54"/>
      <point x="402" y="46"/>
      <point x="395" y="39" type="curve"/>
      <point x="392" y="35"/>
      <point x="378" y="28"/>
      <point x="375" y="28" type="curve"/>
      <point x="371" y="27"/>
      <point x="339" y="19"/>
      <point x="339" y="7" type="curve" smooth="yes"/>
      <point x="339" y="0"/>
      <point x="346" y="-3"/>
      <point x="359" y="-3" type="curve"/>
    </contour>
  </outline>
</glyph>
<glyph name="dottedcircle" format="1">
  <advance width="660"/>
  <unicode hex="25CC"/>
  <outline>
    <contour>
      <point x="353" y="530"/>
      <point x="372" y="549"/>
      <point x="372" y="573" type="curve" smooth="yes"/>
      <point x="372" y="597"/>
      <point x="353" y="616"/>
      <point x="329" y="616" type="curve" smooth="yes"/>
      <point x="304" y="616"/>
      <point x="285" y="597"/>
      <point x="285" y="573" type="curve" smooth="yes"/>
      <point x="285" y="549"/>
      <point x="304" y="530"/>
      <point x="329" y="530" type="curve" smooth="yes"/>
    </contour>
    <contour>
      <point x="353" y="21"/>
      <point x="372" y="40"/>
      <point x="372" y="64" type="curve" smooth="yes"/>
      <point x="372" y="88"/>
      <point x="353" y="107"/>
      <point x="329" y="107" type="curve" smooth="yes"/>
      <point x="304" y="107"/>
      <point x="285" y="88"/>
      <point x="285" y="64" type="curve" smooth="yes"/>
      <point x="285" y="40"/>
      <point x="304" y="21"/>
      <point x="329" y="21" type="curve" smooth="yes"/>
    </contour>
    <contour>
      <point x="434" y="497"/>
      <point x="456" y="497" type="curve" smooth="yes"/>
      <point x="480" y="497"/>
      <point x="499" y="518"/>
      <point x="499" y="541" type="curve" smooth="yes"/>
      <point x="499" y="564"/>
      <point x="480" y="584"/>
      <point x="456" y="584" type="curve" smooth="yes"/>
      <point x="432" y="584"/>
      <point x="412" y="564"/>
      <point x="412" y="541" type="curve" smooth="yes"/>
      <point x="412" y="518"/>
    </contour>
    <contour>
      <point x="178" y="56"/>
      <point x="202" y="56" type="curve" smooth="yes"/>
      <point x="226" y="56"/>
      <point x="245" y="77"/>
      <point x="245" y="100" type="curve" smooth="yes"/>
      <point x="245" y="124"/>
      <point x="224" y="143"/>
      <point x="201" y="143" type="curve" smooth="yes"/>
      <point x="178" y="143"/>
      <point x="158" y="122"/>
      <point x="158" y="100" type="curve" smooth="yes"/>
      <point x="158" y="76"/>
    </contour>
    <contour>
      <point x="526" y="405"/>
      <point x="550" y="405" type="curve" smooth="yes"/>
      <point x="574" y="405"/>
      <point x="594" y="425"/>
      <point x="594" y="449" type="curve" smooth="yes"/>
      <point x="594" y="468"/>
      <point x="576" y="492"/>
      <point x="550" y="492" type="curve" smooth="yes"/>
      <point x="531" y="492"/>
      <point x="507" y="475"/>
      <point x="507" y="449" type="curve" smooth="yes"/>
      <point x="507" y="424"/>
    </contour>
    <contour>
      <point x="81" y="151"/>
      <point x="108" y="151" type="curve" smooth="yes"/>
      <point x="129" y="151"/>
      <point x="152" y="168"/>
      <point x="152" y="194" type="curve" smooth="yes"/>
      <point x="152" y="215"/>
      <point x="135" y="238"/>
      <point x="109" y="238" type="curve" smooth="yes"/>
      <point x="88" y="238"/>
      <point x="65" y="222"/>
      <point x="65" y="195" type="curve" smooth="yes"/>
      <point x="65" y="175"/>
    </contour>
    <contour>
      <point x="542" y="298"/>
      <point x="561" y="279"/>
      <point x="585" y="279" type="curve" smooth="yes"/>
      <point x="609" y="279"/>
      <point x="628" y="298"/>
      <point x="628" y="322" type="curve" smooth="yes"/>
      <point x="628" y="347"/>
      <point x="609" y="366"/>
      <point x="585" y="366" type="curve" smooth="yes"/>
      <point x="561" y="366"/>
      <point x="542" y="347"/>
      <point x="542" y="322" type="curve" smooth="yes"/>
    </contour>
    <contour>
      <point x="33" y="298"/>
      <point x="52" y="279"/>
      <point x="76" y="279" type="curve" smooth="yes"/>
      <point x="100" y="279"/>
      <point x="119" y="298"/>
      <point x="119" y="322" type="curve" smooth="yes"/>
      <point x="119" y="347"/>
      <point x="100" y="366"/>
      <point x="76" y="366" type="curve" smooth="yes"/>
      <point x="52" y="366"/>
      <point x="33" y="347"/>
      <point x="33" y="322" type="curve" smooth="yes"/>
    </contour>
    <contour>
      <point x="509" y="217"/>
      <point x="509" y="195" type="curve" smooth="yes"/>
      <point x="509" y="171"/>
      <point x="530" y="152"/>
      <point x="553" y="152" type="curve" smooth="yes"/>
      <point x="576" y="152"/>
      <point x="596" y="171"/>
      <point x="596" y="195" type="curve" smooth="yes"/>
      <point x="596" y="219"/>
      <point x="576" y="239"/>
      <point x="553" y="239" type="curve" smooth="yes"/>
      <point x="530" y="239"/>
    </contour>
    <contour>
      <point x="68" y="473"/>
      <point x="68" y="449" type="curve" smooth="yes"/>
      <point x="68" y="425"/>
      <point x="89" y="406"/>
      <point x="112" y="406" type="curve" smooth="yes"/>
      <point x="136" y="406"/>
      <point x="155" y="427"/>
      <point x="155" y="450" type="curve" smooth="yes"/>
      <point x="155" y="473"/>
      <point x="134" y="493"/>
      <point x="112" y="493" type="curve" smooth="yes"/>
      <point x="88" y="493"/>
    </contour>
    <contour>
      <point x="417" y="125"/>
      <point x="417" y="101" type="curve" smooth="yes"/>
      <point x="417" y="77"/>
      <point x="437" y="57"/>
      <point x="461" y="57" type="curve" smooth="yes"/>
      <point x="480" y="57"/>
      <point x="504" y="75"/>
      <point x="504" y="101" type="curve" smooth="yes"/>
      <point x="504" y="120"/>
      <point x="487" y="144"/>
      <point x="461" y="144" type="curve" smooth="yes"/>
      <point x="436" y="144"/>
    </contour>
    <contour>
      <point x="163" y="570"/>
      <point x="163" y="543" type="curve" smooth="yes"/>
      <point x="163" y="522"/>
      <point x="180" y="499"/>
      <point x="206" y="499" type="curve" smooth="yes"/>
      <point x="227" y="499"/>
      <point x="250" y="516"/>
      <point x="250" y="542" type="curve" smooth="yes"/>
      <point x="250" y="563"/>
      <point x="234" y="586"/>
      <point x="207" y="586" type="curve" smooth="yes"/>
      <point x="187" y="586"/>
    </contour>
  </outline>
</glyph>
<glyph name=".notdef" format="1">
  <advance width="364"/>
  <outline>
    <contour>
      <point x="33" y="0" type="line"/>
      <point x="33" y="666" type="line"/>
      <point x="298" y="666" type="line"/>
      <point x="298" y="0" type="line"/>
    </contour>
    <contour>
      <point x="66" y="33" type="line"/>
      <point x="265" y="33" type="line"/>
      <point x="265" y="633" type="line"/>
      <point x="66" y="633" type="line"/>
    </contour>
  </outline>
</glyph>
<glyph name="currency.sc" format="1">
  <advance width="483"/>
  <outline>
    <contour>
      <point x="71" y="67"/>
      <point x="74" y="68"/>
      <point x="76" y="70" type="curve" smooth="yes"/>
      <point x="123" y="116" type="line"/>
      <point x="156" y="89"/>
      <point x="196" y="75"/>
      <point x="241" y="75" type="curve" smooth="yes"/>
      <point x="286" y="75"/>
      <point x="326" y="89"/>
      <point x="359" y="116" type="curve"/>
      <point x="405" y="70" type="line" smooth="yes"/>
      <point x="407" y="68"/>
      <point x="411" y="67"/>
      <point x="416" y="67" type="curve" smooth="yes"/>
      <point x="426" y="67"/>
      <point x="444" y="86"/>
      <point x="444" y="95" type="curve" smooth="yes"/>
      <point x="444" y="100"/>
      <point x="443" y="103"/>
      <point x="441" y="105" type="curve" smooth="yes"/>
      <point x="394" y="152" type="line"/>
      <point x="420" y="186"/>
      <point x="433" y="225"/>
      <point x="433" y="270" type="curve" smooth="yes"/>
      <point x="433" y="315"/>
      <point x="420" y="354"/>
      <point x="394" y="388" type="curve"/>
      <point x="439" y="433" type="line" smooth="yes"/>
      <point x="442" y="436"/>
      <point x="443" y="440"/>
      <point x="443" y="445" type="curve" smooth="yes"/>
      <point x="443" y="456"/>
      <point x="424" y="473"/>
      <point x="415" y="473" type="curve" smooth="yes"/>
      <point x="410" y="473"/>
      <point x="407" y="472"/>
      <point x="405" y="470" type="curve" smooth="yes"/>
      <point x="359" y="424" type="line"/>
      <point x="326" y="451"/>
      <point x="287" y="465"/>
      <point x="243" y="465" type="curve" smooth="yes"/>
      <point x="198" y="465"/>
      <point x="158" y="451"/>
      <point x="122" y="424" type="curve"/>
      <point x="77" y="469" type="line" smooth="yes"/>
      <point x="75" y="471"/>
      <point x="72" y="472"/>
      <point x="67" y="472" type="curve" smooth="yes"/>
      <point x="57" y="472"/>
      <point x="38" y="453"/>
      <point x="38" y="444" type="curve" smooth="yes"/>
      <point x="38" y="439"/>
      <point x="39" y="436"/>
      <point x="41" y="434" type="curve" smooth="yes"/>
      <point x="88" y="387" type="line"/>
      <point x="62" y="354"/>
      <point x="49" y="315"/>
      <point x="49" y="270" type="curve" smooth="yes"/>
      <point x="49" y="225"/>
      <point x="62" y="186"/>
      <point x="88" y="152" type="curve"/>
      <point x="41" y="105" type="line" smooth="yes"/>
      <point x="39" y="103"/>
      <point x="38" y="100"/>
      <point x="38" y="95" type="curve" smooth="yes"/>
      <point x="38" y="85"/>
      <point x="56" y="67"/>
      <point x="66" y="67" type="curve" smooth="yes"/>
    </contour>
    <contour>
      <point x="162" y="125"/>
      <point x="99" y="190"/>
      <point x="99" y="270" type="curve" smooth="yes"/>
      <point x="99" y="350"/>
      <point x="162" y="415"/>
      <point x="241" y="415" type="curve" smooth="yes"/>
      <point x="280" y="415"/>
      <point x="314" y="401"/>
      <point x="342" y="373" type="curve"/>
      <point x="369" y="344"/>
      <point x="383" y="310"/>
      <point x="383" y="270" type="curve" smooth="yes"/>
      <point x="383" y="190"/>
      <point x="320" y="125"/>
      <point x="241" y="125" type="curve" smooth="yes"/>
    </contour>
  </outline>
</glyph>
<glyph name="equal.ordn" format="1">
  <advance width="390"/>
  <outline>
    <contour>
      <point x="337" y="468" type="line" smooth="yes"/>
      <point x="348" y="468"/>
      <point x="358" y="484"/>
      <point x="358" y="497" type="curve" smooth="yes"/>
      <point x="358" y="502"/>
      <point x="355" y="504"/>
      <point x="349" y="504" type="curve" smooth="yes"/>
      <point x="48" y="504" type="line" smooth="yes"/>
      <point x="37" y="504"/>
      <point x="32" y="495"/>
      <point x="32" y="476" type="curve" smooth="yes"/>
      <point x="32" y="471"/>
      <point x="35" y="468"/>
      <point x="42" y="468" type="curve" smooth="yes"/>
    </contour>
    <contour>
      <point x="337" y="360" type="line" smooth="yes"/>
      <point x="348" y="360"/>
      <point x="358" y="375"/>
      <point x="358" y="387" type="curve" smooth="yes"/>
      <point x="358" y="393"/>
      <point x="355" y="396"/>
      <point x="349" y="396" type="curve" smooth="yes"/>
      <point x="48" y="396" type="line" smooth="yes"/>
      <point x="37" y="396"/>
      <point x="32" y="386"/>
      <point x="32" y="367" type="curve" smooth="yes"/>
      <point x="32" y="362"/>
      <point x="35" y="360"/>
      <point x="42" y="360" type="curve" smooth="yes"/>
    </contour>
  </outline>
</glyph>
<glyph name="equal.sinf" format="1">
  <advance width="390"/>
  <outline>
    <contour>
      <point x="337" y="44" type="line" smooth="yes"/>
      <point x="348" y="44"/>
      <point x="358" y="60"/>
      <point x="358" y="73" type="curve" smooth="yes"/>
      <point x="358" y="78"/>
      <point x="355" y="80"/>
      <point x="349" y="80" type="curve" smooth="yes"/>
      <point x="48" y="80" type="line" smooth="yes"/>
      <point x="37" y="80"/>
      <point x="32" y="71"/>
      <point x="32" y="52" type="curve" smooth="yes"/>
      <point x="32" y="47"/>
      <point x="35" y="44"/>
      <point x="42" y="44" type="curve" smooth="yes"/>
    </contour>
    <contour>
      <point x="337" y="-64" type="line" smooth="yes"/>
      <point x="348" y="-64"/>
      <point x="358" y="-49"/>
      <point x="358" y="-37" type="curve" smooth="yes"/>
      <point x="358" y="-31"/>
      <point x="355" y="-28"/>
      <point x="349" y="-28" type="curve" smooth="yes"/>
      <point x="48" y="-28" type="line" smooth="yes"/>
      <point x="37" y="-28"/>
      <point x="32" y="-38"/>
      <point x="32" y="-57" type="curve" smooth="yes"/>
      <point x="32" y="-62"/>
      <point x="35" y="-64"/>
      <point x="42" y="-64" type="curve" smooth="yes"/>
    </contour>
  </outline>
</glyph>
<glyph name="equal.subs" format="1">
  <advance width="390"/>
  <outline>
    <contour>
      <point x="337" y="188" type="line" smooth="yes"/>
      <point x="348" y="188"/>
      <point x="358" y="204"/>
      <point x="358" y="217" type="curve" smooth="yes"/>
      <point x="358" y="222"/>
      <point x="355" y="224"/>
      <point x="349" y="224" type="curve" smooth="yes"/>
      <point x="48" y="224" type="line" smooth="yes"/>
      <point x="37" y="224"/>
      <point x="32" y="215"/>
      <point x="32" y="196" type="curve" smooth="yes"/>
      <point x="32" y="191"/>
      <point x="35" y="188"/>
      <point x="42" y="188" type="curve" smooth="yes"/>
    </contour>
    <contour>
      <point x="337" y="80" type="line" smooth="yes"/>
      <point x="348" y="80"/>
      <point x="358" y="95"/>
      <point x="358" y="107" type="curve" smooth="yes"/>
      <point x="358" y="113"/>
      <point x="355" y="116"/>
      <point x="349" y="116" type="curve" smooth="yes"/>
      <point x="48" y="116" type="line" smooth="yes"/>
      <point x="37" y="116"/>
      <point x="32" y="106"/>
      <point x="32" y="87" type="curve" smooth="yes"/>
      <point x="32" y="82"/>
      <point x="35" y="80"/>
      <point x="42" y="80" type="curve" smooth="yes"/>
    </contour>
  </outline>
</glyph>
<glyph name="indianrupee" format="1">
  <advance width="503"/>
  <outline>
    <contour>
      <point x="264" y="264"/>
      <point x="355" y="351"/>
      <point x="355" y="472" type="curve" smooth="yes"/>
      <point x="355" y="589"/>
      <point x="229" y="658"/>
      <point x="128" y="658" type="curve"/>
      <point x="118" y="657"/>
      <point x="99" y="657"/>
      <point x="79" y="656" type="curve"/>
      <point x="60" y="656"/>
      <point x="50" y="649"/>
      <point x="50" y="636" type="curve" smooth="yes"/>
      <point x="50" y="627"/>
      <point x="54" y="622"/>
      <point x="75" y="622" type="curve" smooth="yes"/>
      <point x="211" y="622"/>
      <point x="265" y="586"/>
      <point x="265" y="458" type="curve" smooth="yes"/>
      <point x="265" y="349"/>
      <point x="215" y="289"/>
      <point x="144" y="289" type="curve" smooth="yes"/>
      <point x="119" y="289"/>
      <point x="103" y="294"/>
      <point x="88" y="294" type="curve" smooth="yes"/>
      <point x="77" y="294"/>
      <point x="72" y="290"/>
      <point x="72" y="283" type="curve" smooth="yes"/>
      <point x="72" y="278"/>
      <point x="76" y="274"/>
      <point x="85" y="270" type="curve"/>
      <point x="93" y="266"/>
      <point x="104" y="264"/>
      <point x="117" y="264" type="curve" smooth="yes"/>
    </contour>
    <contour>
      <point x="488" y="-21"/>
      <point x="532" y="-11"/>
      <point x="532" y="14" type="curve" smooth="yes"/>
      <point x="532" y="21"/>
      <point x="527" y="25"/>
      <point x="517" y="25" type="curve" smooth="yes"/>
      <point x="462" y="25"/>
      <point x="434" y="30"/>
      <point x="402" y="58" type="curve" smooth="yes"/>
      <point x="373" y="85"/>
      <point x="345" y="114"/>
      <point x="319" y="146" type="curve" smooth="yes"/>
      <point x="269" y="205"/>
      <point x="260" y="219"/>
      <point x="210" y="295" type="curve"/>
      <point x="117" y="264" type="line"/>
      <point x="154" y="264"/>
      <point x="190" y="195"/>
      <point x="209" y="167" type="curve" smooth="yes"/>
      <point x="246" y="110"/>
      <point x="326" y="-21"/>
      <point x="451" y="-21" type="curve" smooth="yes"/>
    </contour>
    <contour>
      <point x="373" y="434" type="line" smooth="yes"/>
      <point x="389" y="434"/>
      <point x="404" y="448"/>
      <point x="404" y="461" type="curve" smooth="yes"/>
      <point x="404" y="473"/>
      <point x="398" y="478"/>
      <point x="391" y="478" type="curve" smooth="yes"/>
      <point x="78" y="478" type="line" smooth="yes"/>
      <point x="62" y="478"/>
      <point x="54" y="461"/>
      <point x="54" y="450" type="curve" smooth="yes"/>
      <point x="54" y="438"/>
      <point x="61" y="434"/>
      <point x="68" y="434" type="curve" smooth="yes"/>
    </contour>
    <contour>
      <point x="364" y="658"/>
      <point x="349" y="658"/>
      <point x="129" y="658" type="curve"/>
      <point x="242" y="614" type="line"/>
      <point x="373" y="614" type="line" smooth="yes"/>
      <point x="389" y="614"/>
      <point x="404" y="628"/>
      <point x="404" y="641" type="curve" smooth="yes"/>
      <point x="404" y="653"/>
      <point x="398" y="658"/>
      <point x="391" y="658" type="curve" smooth="yes"/>
    </contour>
  </outline>
</glyph>
<glyph name="knKHA.base" format="1">
  <advance width="767"/>
  <outline>
    <contour>
      <point x="687" y="137"/>
      <point x="616" y="71"/>
      <point x="530" y="71" type="curve" smooth="yes"/>
      <point x="381" y="71"/>
      <point x="312" y="231"/>
      <point x="168" y="231" type="curve" smooth="yes"/>
      <point x="92" y="231"/>
      <point x="40" y="187"/>
      <point x="40" y="119" type="curve" smooth="yes"/>
      <point x="40" y="46"/>
      <point x="100" y="-14"/>
      <point x="194" y="-14" type="curve" smooth="yes"/>
      <point x="348" y="-14"/>
      <point x="437" y="139"/>
      <point x="437" y="287" type="curve" smooth="yes"/>
      <point x="437" y="445"/>
      <point x="357" y="520"/>
      <point x="268" y="520" type="curve" smooth="yes"/>
      <point x="197" y="520"/>
      <point x="146" y="469"/>
      <point x="146" y="404" type="curve" smooth="yes"/>
      <point x="146" y="350"/>
      <point x="180" y="300"/>
      <point x="236" y="300" type="curve" smooth="yes"/>
      <point x="280" y="300"/>
      <point x="304" y="328"/>
      <point x="304" y="357" type="curve" smooth="yes"/>
      <point x="304" y="385"/>
      <point x="283" y="408"/>
      <point x="255" y="408" type="curve" smooth="yes"/>
      <point x="228" y="408"/>
      <point x="211" y="387"/>
      <point x="211" y="357" type="curve" smooth="yes"/>
      <point x="211" y="352"/>
      <point x="210" y="351"/>
      <point x="207" y="351" type="curve" smooth="yes"/>
      <point x="194" y="351"/>
      <point x="185" y="369"/>
      <point x="185" y="389" type="curve" smooth="yes"/>
      <point x="185" y="426"/>
      <point x="217" y="455"/>
      <point x="266" y="455" type="curve" smooth="yes"/>
      <point x="336" y="455"/>
      <point x="397" y="397"/>
      <point x="397" y="285" type="curve" smooth="yes"/>
      <point x="397" y="159"/>
      <point x="326" y="71"/>
      <point x="202" y="71" type="curve" smooth="yes"/>
      <point x="125" y="71"/>
      <point x="94" y="104"/>
      <point x="94" y="138" type="curve" smooth="yes"/>
      <point x="94" y="167"/>
      <point x="117" y="196"/>
      <point x="170" y="196" type="curve" smooth="yes"/>
      <point x="311" y="196"/>
      <point x="380" y="-14"/>
      <point x="528" y="-14" type="curve" smooth="yes"/>
      <point x="641" y="-14"/>
      <point x="722" y="95"/>
      <point x="722" y="242" type="curve"/>
      <point x="720" y="415"/>
      <point x="628" y="509"/>
      <point x="555" y="509" type="curve"/>
      <point x="555" y="436" type="line"/>
      <point x="641" y="428"/>
      <point x="685" y="345"/>
      <point x="687" y="252" type="curve" smooth="yes"/>
    </contour>
  </outline>
</glyph>
<glyph name="knLA.base" format="1">
  <advance width="717"/>
  <outline>
    <contour>
      <point x="552" y="-13"/>
      <point x="657" y="116"/>
      <point x="657" y="275" type="curve" smooth="yes"/>
      <point x="657" y="416"/>
      <point x="566" y="509"/>
      <point x="494" y="509" type="curve"/>
      <point x="494" y="434" type="line"/>
      <point x="570" y="421"/>
      <point x="622" y="365"/>
      <point x="622" y="287" type="curve" smooth="yes"/>
      <point x="622" y="156"/>
      <point x="520" y="71"/>
      <point x="368" y="71" type="curve" smooth="yes"/>
      <point x="199" y="71"/>
      <point x="100" y="172"/>
      <point x="100" y="301" type="curve" smooth="yes"/>
      <point x="100" y="387"/>
      <point x="142" y="454"/>
      <point x="235" y="454" type="curve" smooth="yes"/>
      <point x="273" y="454"/>
      <point x="307" y="440"/>
      <point x="307" y="401" type="curve" smooth="yes"/>
      <point x="307" y="365"/>
      <point x="279" y="344"/>
      <point x="235" y="344" type="curve" smooth="yes"/>
      <point x="190" y="344"/>
      <point x="159" y="365"/>
      <point x="159" y="408" type="curve" smooth="yes"/>
      <point x="159" y="419"/>
      <point x="163" y="440"/>
      <point x="166" y="450" type="curve"/>
      <point x="135" y="429" type="line"/>
      <point x="132" y="407"/>
      <point x="131" y="394"/>
      <point x="131" y="381" type="curve" smooth="yes"/>
      <point x="131" y="308"/>
      <point x="174" y="273"/>
      <point x="229" y="273" type="curve" smooth="yes"/>
      <point x="295" y="273"/>
      <point x="337" y="325"/>
      <point x="337" y="394" type="curve" smooth="yes"/>
      <point x="337" y="457"/>
      <point x="301" y="519"/>
      <point x="226" y="519" type="curve" smooth="yes"/>
      <point x="128" y="519"/>
      <point x="60" y="414"/>
      <point x="60" y="283" type="curve" smooth="yes"/>
      <point x="60" y="104"/>
      <point x="180" y="-14"/>
      <point x="357" y="-14" type="curve" smooth="yes"/>
    </contour>
  </outline>
</glyph>
<glyph name="knLLLAc2" format="1">
  <advance width="0"/>
  <outline>
    <contour>
      <point x="-69" y="-323" type="line"/>
      <point x="-56" y="-376"/>
      <point x="-14" y="-412"/>
      <point x="39" y="-412" type="curve" smooth="yes"/>
      <point x="108" y="-412"/>
      <point x="153" y="-351"/>
      <point x="153" y="-254" type="curve" smooth="yes"/>
      <point x="153" y="-156"/>
      <point x="106" y="-75"/>
      <point x="31" y="-75" type="curve" smooth="yes"/>
      <point x="-15" y="-75"/>
      <point x="-32" y="-106"/>
      <point x="-32" y="-153" type="curve" smooth="yes"/>
      <point x="-32" y="-204"/>
      <point x="-8" y="-230"/>
      <point x="37" y="-230" type="curve" smooth="yes"/>
      <point x="76" y="-230"/>
      <point x="105" y="-210"/>
      <point x="105" y="-163" type="curve" smooth="yes"/>
      <point x="105" y="-155"/>
      <point x="104" y="-144"/>
      <point x="101" y="-133" type="curve"/>
      <point x="85" y="-122" type="line"/>
      <point x="86" y="-128"/>
      <point x="87" y="-139"/>
      <point x="87" y="-146" type="curve" smooth="yes"/>
      <point x="87" y="-172"/>
      <point x="70" y="-186"/>
      <point x="38" y="-186" type="curve" smooth="yes"/>
      <point x="6" y="-186"/>
      <point x="-4" y="-172"/>
      <point x="-4" y="-151" type="curve" smooth="yes"/>
      <point x="-4" y="-126"/>
      <point x="10" y="-116"/>
      <point x="37" y="-116" type="curve" smooth="yes"/>
      <point x="98" y="-116"/>
      <point x="122" y="-172"/>
      <point x="122" y="-237" type="curve" smooth="yes"/>
      <point x="122" y="-310"/>
      <point x="92" y="-359"/>
      <point x="37" y="-359" type="curve" smooth="yes"/>
      <point x="-18" y="-359"/>
      <point x="-57" y="-312"/>
      <point x="-65" y="-263" type="curve"/>
      <point x="-80" y="-263" type="line"/>
      <point x="-88" y="-312"/>
      <point x="-126" y="-359"/>
      <point x="-181" y="-359" type="curve" smooth="yes"/>
      <point x="-236" y="-359"/>
      <point x="-266" y="-310"/>
      <point x="-266" y="-237" type="curve" smooth="yes"/>
      <point x="-266" y="-172"/>
      <point x="-242" y="-116"/>
      <point x="-181" y="-116" type="curve" smooth="yes"/>
      <point x="-154" y="-116"/>
      <point x="-140" y="-126"/>
      <point x="-140" y="-151" type="curve" smooth="yes"/>
      <point x="-140" y="-172"/>
      <point x="-150" y="-186"/>
      <point x="-182" y="-186" type="curve" smooth="yes"/>
      <point x="-214" y="-186"/>
      <point x="-231" y="-172"/>
      <point x="-231" y="-146" type="curve" smooth="yes"/>
      <point x="-231" y="-139"/>
      <point x="-230" y="-128"/>
      <point x="-229" y="-122" type="curve"/>
      <point x="-245" y="-133" type="line"/>
      <point x="-248" y="-144"/>
      <point x="-249" y="-155"/>
      <point x="-249" y="-163" type="curve" smooth="yes"/>
      <point x="-249" y="-210"/>
      <point x="-220" y="-230"/>
      <point x="-181" y="-230" type="curve" smooth="yes"/>
      <point x="-136" y="-230"/>
      <point x="-112" y="-204"/>
      <point x="-112" y="-153" type="curve" smooth="yes"/>
      <point x="-112" y="-106"/>
      <point x="-129" y="-75"/>
      <point x="-175" y="-75" type="curve" smooth="yes"/>
      <point x="-250" y="-75"/>
      <point x="-297" y="-156"/>
      <point x="-297" y="-254" type="curve" smooth="yes"/>
      <point x="-297" y="-351"/>
      <point x="-252" y="-412"/>
      <point x="-183" y="-412" type="curve" smooth="yes"/>
      <point x="-130" y="-412"/>
      <point x="-88" y="-376"/>
      <point x="-75" y="-323" type="curve"/>
    </contour>
  </outline>
</glyph>
<glyph name="knRRAc2" format="1">
  <advance width="0"/>
  <outline>
    <contour>
      <point x="35" y="-230" type="line"/>
      <point x="35" y="-186" type="line"/>
      <point x="-183" y="-186" type="line"/>
      <point x="-183" y="-230" type="line"/>
    </contour>
    <contour>
      <point x="-57" y="-376"/>
      <point x="-15" y="-412"/>
      <point x="38" y="-412" type="curve" smooth="yes"/>
      <point x="107" y="-412"/>
      <point x="150" y="-351"/>
      <point x="150" y="-257" type="curve" smooth="yes"/>
      <point x="150" y="-156"/>
      <point x="105" y="-75"/>
      <point x="29" y="-75" type="curve" smooth="yes"/>
      <point x="-18" y="-75"/>
      <point x="-34" y="-106"/>
      <point x="-34" y="-149" type="curve" smooth="yes"/>
      <point x="-34" y="-204"/>
      <point x="-8" y="-230"/>
      <point x="36" y="-230" type="curve" smooth="yes"/>
      <point x="75" y="-230"/>
      <point x="103" y="-210"/>
      <point x="103" y="-163" type="curve" smooth="yes"/>
      <point x="103" y="-148"/>
      <point x="100" y="-137"/>
      <point x="97" y="-128" type="curve"/>
      <point x="80" y="-115" type="line"/>
      <point x="83" y="-124"/>
      <point x="85" y="-134"/>
      <point x="85" y="-146" type="curve" smooth="yes"/>
      <point x="85" y="-172"/>
      <point x="70" y="-186"/>
      <point x="38" y="-186" type="curve" smooth="yes"/>
      <point x="5" y="-186"/>
      <point x="-6" y="-172"/>
      <point x="-6" y="-151" type="curve" smooth="yes"/>
      <point x="-6" y="-126"/>
      <point x="9" y="-116"/>
      <point x="35" y="-116" type="curve" smooth="yes"/>
      <point x="96" y="-116"/>
      <point x="120" y="-172"/>
      <point x="120" y="-239" type="curve" smooth="yes"/>
      <point x="120" y="-310"/>
      <point x="92" y="-359"/>
      <point x="36" y="-359" type="curve" smooth="yes"/>
      <point x="-18" y="-359"/>
      <point x="-57" y="-312"/>
      <point x="-66" y="-263" type="curve"/>
      <point x="-81" y="-263" type="line"/>
      <point x="-90" y="-312"/>
      <point x="-129" y="-359"/>
      <point x="-183" y="-359" type="curve" smooth="yes"/>
      <point x="-239" y="-359"/>
      <point x="-267" y="-310"/>
      <point x="-267" y="-239" type="curve" smooth="yes"/>
      <point x="-267" y="-172"/>
      <point x="-243" y="-116"/>
      <point x="-182" y="-116" type="curve" smooth="yes"/>
      <point x="-156" y="-116"/>
      <point x="-141" y="-126"/>
      <point x="-141" y="-151" type="curve" smooth="yes"/>
      <point x="-141" y="-172"/>
      <point x="-152" y="-186"/>
      <point x="-185" y="-186" type="curve" smooth="yes"/>
      <point x="-217" y="-186"/>
      <point x="-232" y="-172"/>
      <point x="-232" y="-146" type="curve" smooth="yes"/>
      <point x="-232" y="-134"/>
      <point x="-230" y="-124"/>
      <point x="-227" y="-115" type="curve"/>
      <point x="-244" y="-128" type="line"/>
      <point x="-247" y="-137"/>
      <point x="-250" y="-148"/>
      <point x="-250" y="-163" type="curve" smooth="yes"/>
      <point x="-250" y="-210"/>
      <point x="-222" y="-230"/>
      <point x="-183" y="-230" type="curve" smooth="yes"/>
      <point x="-139" y="-230"/>
      <point x="-113" y="-204"/>
      <point x="-113" y="-149" type="curve" smooth="yes"/>
      <point x="-113" y="-106"/>
      <point x="-129" y="-75"/>
      <point x="-176" y="-75" type="curve" smooth="yes"/>
      <point x="-252" y="-75"/>
      <point x="-297" y="-156"/>
      <point x="-297" y="-257" type="curve" smooth="yes"/>
      <point x="-297" y="-351"/>
      <point x="-254" y="-412"/>
      <point x="-185" y="-412" type="curve" smooth="yes"/>
      <point x="-132" y="-412"/>
      <point x="-90" y="-376"/>
      <point x="-77" y="-323" type="curve"/>
      <point x="-70" y="-323" type="line"/>
    </contour>
  </outline>
</glyph>
<glyph name="knTTAc2" format="1">
  <advance width="80"/>
  <outline>
    <contour>
      <point x="79" y="-136"/>
      <point x="117" y="-98"/>
      <point x="117" y="-50" type="curve" smooth="yes"/>
      <point x="117" y="-3"/>
      <point x="81" y="27"/>
      <point x="28" y="32" type="curve"/>
      <point x="26" y="11" type="line"/>
      <point x="56" y="2"/>
      <point x="77" y="-18"/>
      <point x="77" y="-52" type="curve" smooth="yes"/>
      <point x="77" y="-84"/>
      <point x="58" y="-111"/>
      <point x="16" y="-135" type="curve"/>
      <point x="37" y="-147" type="line"/>
    </contour>
    <contour>
      <point x="-57" y="-469"/>
      <point x="-38" y="-475"/>
      <point x="-38" y="-506" type="curve" smooth="yes"/>
      <point x="-38" y="-530"/>
      <point x="-56" y="-544"/>
      <point x="-74" y="-544" type="curve" smooth="yes"/>
      <point x="-92" y="-544"/>
      <point x="-108" y="-530"/>
      <point x="-108" y="-505" type="curve" smooth="yes"/>
      <point x="-108" y="-475"/>
      <point x="-91" y="-469"/>
      <point x="-83" y="-396" type="curve"/>
      <point x="-65" y="-396" type="line"/>
    </contour>
    <contour>
      <point x="105" y="-412"/>
      <point x="150" y="-355"/>
      <point x="150" y="-267" type="curve" smooth="yes"/>
      <point x="150" y="-179"/>
      <point x="105" y="-146"/>
      <point x="37" y="-135" type="curve"/>
      <point x="17" y="-135" type="line"/>
      <point x="29" y="-160" type="line"/>
      <point x="89" y="-169"/>
      <point x="119" y="-214"/>
      <point x="119" y="-264" type="curve" smooth="yes"/>
      <point x="119" y="-316"/>
      <point x="86" y="-359"/>
      <point x="35" y="-359" type="curve"/>
      <point x="-18" y="-359"/>
      <point x="-58" y="-312"/>
      <point x="-66" y="-263" type="curve"/>
      <point x="-81" y="-263" type="line"/>
      <point x="-90" y="-312"/>
      <point x="-129" y="-359"/>
      <point x="-183" y="-359" type="curve" smooth="yes"/>
      <point x="-239" y="-359"/>
      <point x="-267" y="-309"/>
      <point x="-267" y="-238" type="curve" smooth="yes"/>
      <point x="-267" y="-171"/>
      <point x="-243" y="-115"/>
      <point x="-184" y="-115" type="curve" smooth="yes"/>
      <point x="-156" y="-115"/>
      <point x="-141" y="-124"/>
      <point x="-141" y="-149" type="curve" smooth="yes"/>
      <point x="-141" y="-171"/>
      <point x="-152" y="-185"/>
      <point x="-185" y="-185" type="curve" smooth="yes"/>
      <point x="-217" y="-185"/>
      <point x="-232" y="-171"/>
      <point x="-232" y="-145" type="curve" smooth="yes"/>
      <point x="-232" y="-137"/>
      <point x="-231" y="-128"/>
      <point x="-227" y="-118" type="curve"/>
      <point x="-248" y="-131" type="line"/>
      <point x="-249" y="-146"/>
      <point x="-250" y="-155"/>
      <point x="-250" y="-161" type="curve" smooth="yes"/>
      <point x="-250" y="-207"/>
      <point x="-222" y="-229"/>
      <point x="-182" y="-229" type="curve" smooth="yes"/>
      <point x="-139" y="-229"/>
      <point x="-113" y="-203"/>
      <point x="-113" y="-148" type="curve" smooth="yes"/>
      <point x="-113" y="-105"/>
      <point x="-129" y="-74"/>
      <point x="-176" y="-74" type="curve" smooth="yes"/>
      <point x="-252" y="-74"/>
      <point x="-297" y="-155"/>
      <point x="-297" y="-255" type="curve" smooth="yes"/>
      <point x="-297" y="-350"/>
      <point x="-254" y="-412"/>
      <point x="-185" y="-412" type="curve" smooth="yes"/>
      <point x="-132" y="-412"/>
      <point x="-90" y="-376"/>
      <point x="-77" y="-324" type="curve"/>
      <point x="-70" y="-324" type="line"/>
      <point x="-57" y="-376"/>
      <point x="-14" y="-412"/>
      <point x="40" y="-412" type="curve"/>
    </contour>
  </outline>
</glyph>
<glyph name="percent.sinf" format="1">
  <advance width="477"/>
  <outline>
    <contour>
      <point x="111" y="-160"/>
      <point x="118" y="-157"/>
      <point x="122" y="-151" type="curve" smooth="yes"/>
      <point x="390" y="239" type="line"/>
      <point x="391" y="240"/>
      <point x="391" y="240"/>
      <point x="391" y="241" type="curve" smooth="yes"/>
      <point x="391" y="246"/>
      <point x="387" y="249"/>
      <point x="378" y="249" type="curve" smooth="yes"/>
      <point x="369" y="249"/>
      <point x="361" y="246"/>
      <point x="356" y="239" type="curve" smooth="yes"/>
      <point x="88" y="-151" type="line"/>
      <point x="88" y="-152" type="line"/>
      <point x="87" y="-152"/>
      <point x="87" y="-152"/>
      <point x="87" y="-153" type="curve" smooth="yes"/>
      <point x="87" y="-158"/>
      <point x="92" y="-160"/>
      <point x="102" y="-160" type="curve" smooth="yes"/>
    </contour>
    <contour>
      <point x="172" y="17"/>
      <point x="207" y="70"/>
      <point x="207" y="129" type="curve" smooth="yes"/>
      <point x="207" y="188"/>
      <point x="177" y="234"/>
      <point x="124" y="234" type="curve" smooth="yes"/>
      <point x="71" y="234"/>
      <point x="32" y="182"/>
      <point x="32" y="124" type="curve" smooth="yes"/>
      <point x="32" y="66"/>
      <point x="60" y="17"/>
      <point x="116" y="17" type="curve" smooth="yes"/>
    </contour>
    <contour>
      <point x="96" y="31"/>
      <point x="77" y="86"/>
      <point x="77" y="131" type="curve" smooth="yes"/>
      <point x="77" y="175"/>
      <point x="95" y="218"/>
      <point x="120" y="218" type="curve" smooth="yes"/>
      <point x="144" y="218"/>
      <point x="162" y="166"/>
      <point x="162" y="120" type="curve" smooth="yes"/>
      <point x="162" y="74"/>
      <point x="148" y="31"/>
      <point x="122" y="31" type="curve" smooth="yes"/>
    </contour>
    <contour>
      <point x="411" y="-152"/>
      <point x="446" y="-99"/>
      <point x="446" y="-40" type="curve" smooth="yes"/>
      <point x="446" y="19"/>
      <point x="416" y="65"/>
      <point x="363" y="65" type="curve" smooth="yes"/>
      <point x="310" y="65"/>
      <point x="270" y="13"/>
      <point x="270" y="-45" type="curve" smooth="yes"/>
      <point x="270" y="-103"/>
      <point x="299" y="-152"/>
      <point x="355" y="-152" type="curve" smooth="yes"/>
    </contour>
    <contour>
      <point x="334" y="-138"/>
      <point x="316" y="-83"/>
      <point x="316" y="-38" type="curve" smooth="yes"/>
      <point x="316" y="6"/>
      <point x="334" y="49"/>
      <point x="359" y="49" type="curve" smooth="yes"/>
      <point x="383" y="49"/>
      <point x="400" y="-3"/>
      <point x="400" y="-49" type="curve" smooth="yes"/>
      <point x="400" y="-95"/>
      <point x="386" y="-138"/>
      <point x="360" y="-138" type="curve" smooth="yes"/>
    </contour>
  </outline>
</glyph>
<glyph name="percent.subs" format="1">
  <advance width="477"/>
  <outline>
    <contour>
      <point x="111" y="-16"/>
      <point x="118" y="-13"/>
      <point x="122" y="-7" type="curve" smooth="yes"/>
      <point x="390" y="383" type="line"/>
      <point x="391" y="384"/>
      <point x="391" y="384"/>
      <point x="391" y="385" type="curve" smooth="yes"/>
      <point x="391" y="390"/>
      <point x="387" y="393"/>
      <point x="378" y="393" type="curve" smooth="yes"/>
      <point x="369" y="393"/>
      <point x="361" y="390"/>
      <point x="356" y="383" type="curve" smooth="yes"/>
      <point x="88" y="-7" type="line"/>
      <point x="88" y="-8" type="line"/>
      <point x="87" y="-8"/>
      <point x="87" y="-8"/>
      <point x="87" y="-9" type="curve" smooth="yes"/>
      <point x="87" y="-14"/>
      <point x="92" y="-16"/>
      <point x="102" y="-16" type="curve" smooth="yes"/>
    </contour>
    <contour>
      <point x="172" y="161"/>
      <point x="207" y="214"/>
      <point x="207" y="273" type="curve" smooth="yes"/>
      <point x="207" y="332"/>
      <point x="177" y="378"/>
      <point x="124" y="378" type="curve" smooth="yes"/>
      <point x="71" y="378"/>
      <point x="32" y="326"/>
      <point x="32" y="268" type="curve" smooth="yes"/>
      <point x="32" y="210"/>
      <point x="60" y="161"/>
      <point x="116" y="161" type="curve" smooth="yes"/>
    </contour>
    <contour>
      <point x="96" y="175"/>
      <point x="77" y="230"/>
      <point x="77" y="275" type="curve" smooth="yes"/>
      <point x="77" y="319"/>
      <point x="95" y="362"/>
      <point x="120" y="362" type="curve" smooth="yes"/>
      <point x="144" y="362"/>
      <point x="162" y="310"/>
      <point x="162" y="264" type="curve" smooth="yes"/>
      <point x="162" y="218"/>
      <point x="148" y="175"/>
      <point x="122" y="175" type="curve" smooth="yes"/>
    </contour>
    <contour>
      <point x="411" y="-8"/>
      <point x="446" y="45"/>
      <point x="446" y="104" type="curve" smooth="yes"/>
      <point x="446" y="163"/>
      <point x="416" y="209"/>
      <point x="363" y="209" type="curve" smooth="yes"/>
      <point x="310" y="209"/>
      <point x="270" y="157"/>
      <point x="270" y="99" type="curve" smooth="yes"/>
      <point x="270" y="41"/>
      <point x="299" y="-8"/>
      <point x="355" y="-8" type="curve" smooth="yes"/>
    </contour>
    <contour>
      <point x="334" y="6"/>
      <point x="316" y="61"/>
      <point x="316" y="106" type="curve" smooth="yes"/>
      <point x="316" y="150"/>
      <point x="334" y="193"/>
      <point x="359" y="193" type="curve" smooth="yes"/>
      <point x="383" y="193"/>
      <point x="400" y="141"/>
      <point x="400" y="95" type="curve" smooth="yes"/>
      <point x="400" y="49"/>
      <point x="386" y="6"/>
      <point x="360" y="6" type="curve" smooth="yes"/>
    </contour>
  </outline>
</glyph>
